<svg width="20" height="24" viewBox="0 0 20 24" fill="none" xmlns="http://www.w3.org/2000/svg">
<g clip-path="url(#clip0_12_3402)">
<rect width="20" height="24" fill="black"/>
<path d="M19.2806 18.424C18.9328 19.2275 18.5211 19.9672 18.0441 20.6472C17.3939 21.5743 16.8615 22.216 16.4512 22.5724C15.8151 23.1573 15.1337 23.4568 14.4039 23.4739C13.8801 23.4739 13.2483 23.3248 12.5129 23.0224C11.7751 22.7214 11.097 22.5724 10.477 22.5724C9.8268 22.5724 9.12944 22.7214 8.38352 23.0224C7.63647 23.3248 7.03466 23.4824 6.57453 23.498C5.87475 23.5278 5.17725 23.2197 4.48102 22.5724C4.03665 22.1848 3.48084 21.5204 2.81499 20.5791C2.1006 19.5739 1.51326 18.4084 1.05313 17.0795C0.560353 15.6442 0.313324 14.2543 0.313324 12.9087C0.313324 11.3673 0.646388 10.0379 1.31351 8.92385C1.83781 8.029 2.53531 7.32312 3.40829 6.80493C4.28127 6.28674 5.22453 6.02267 6.24033 6.00578C6.79615 6.00578 7.52502 6.1777 8.4308 6.51559C9.33402 6.85462 9.91397 7.02655 10.1682 7.02655C10.3583 7.02655 11.0026 6.82552 12.0948 6.42473C13.1276 6.05305 13.9993 5.89916 14.7134 5.95978C16.6485 6.11595 18.1023 6.87876 19.0691 8.25303C17.3385 9.30163 16.4824 10.7703 16.4994 12.6544C16.5151 14.122 17.0474 15.3432 18.0938 16.3129C18.568 16.7629 19.0975 17.1107 19.6867 17.3578C19.5589 17.7283 19.424 18.0832 19.2806 18.424V18.424ZM14.8426 0.960131C14.8426 2.11039 14.4224 3.18439 13.5848 4.17847C12.5739 5.36023 11.3513 6.04311 10.0254 5.93536C10.0085 5.79736 9.99873 5.65213 9.99873 5.49951C9.99873 4.39526 10.4794 3.21349 11.3331 2.24724C11.7593 1.75801 12.3014 1.35122 12.9587 1.02671C13.6146 0.707053 14.235 0.530273 14.8185 0.5C14.8355 0.653772 14.8426 0.807554 14.8426 0.960116V0.960131Z" fill="white"/>
</g>
<defs>
<clipPath id="clip0_12_3402">
<rect width="20" height="24" fill="white"/>
</clipPath>
</defs>
</svg>
