<svg width="362" height="369" viewBox="0 0 362 369" fill="none" xmlns="http://www.w3.org/2000/svg">
<rect x="172" y="102.86" width="30" height="30" rx="5" fill="#840202"/>
<path d="M9.38 74.13C8.79933 74.13 8.25767 74.078 7.755 73.974C7.25233 73.8613 6.82767 73.7313 6.481 73.584V69.892H9.458L9.536 71.179H8.145V72.596C8.30967 72.648 8.50467 72.6913 8.73 72.726C8.964 72.752 9.185 72.765 9.393 72.765C10.1037 72.765 10.602 72.596 10.888 72.258C11.174 71.92 11.317 71.3393 11.317 70.516C11.317 69.9267 11.239 69.4673 11.083 69.138C10.9357 68.8 10.6887 68.5617 10.342 68.423C10.004 68.2843 9.54033 68.215 8.951 68.215C8.56967 68.215 8.171 68.2453 7.755 68.306C7.34767 68.358 6.95333 68.4447 6.572 68.566V67.253C6.962 67.123 7.40833 67.0233 7.911 66.954C8.41367 66.8847 8.90333 66.85 9.38 66.85C10.6453 66.85 11.5597 67.1663 12.123 67.799C12.695 68.423 12.981 69.3287 12.981 70.516C12.981 71.6773 12.695 72.57 12.123 73.194C11.5597 73.818 10.6453 74.13 9.38 74.13ZM16.6888 74V69.684C16.6888 69.216 16.5978 68.8563 16.4158 68.605C16.2338 68.345 15.8698 68.215 15.3238 68.215C15.0378 68.215 14.7345 68.2497 14.4138 68.319C14.0932 68.3797 13.8072 68.4577 13.5558 68.553V67.266C13.8158 67.1447 14.1365 67.045 14.5178 66.967C14.8992 66.889 15.2805 66.85 15.6618 66.85C16.6498 66.85 17.3605 67.0623 17.7938 67.487C18.2272 67.903 18.4438 68.553 18.4438 69.437V74H16.6888Z" fill="#840202"/>
<path d="M9.49701 124.01C9.20701 124.01 8.88201 123.99 8.52201 123.95C8.16201 123.91 7.81201 123.855 7.47201 123.785C7.13201 123.715 6.84701 123.635 6.61701 123.545V121.775C7.02701 121.945 7.45201 122.07 7.89201 122.15C8.34201 122.23 8.77701 122.27 9.19701 122.27C9.90701 122.27 10.432 122.175 10.772 121.985C11.122 121.785 11.297 121.425 11.297 120.905C11.297 120.475 11.142 120.17 10.832 119.99C10.532 119.81 10.097 119.72 9.52701 119.72H8.01201L8.16201 118.235H9.42201C10.002 118.235 10.427 118.14 10.697 117.95C10.967 117.75 11.102 117.44 11.102 117.02C11.102 116.6 10.947 116.29 10.637 116.09C10.337 115.88 9.85201 115.775 9.18201 115.775C8.75201 115.775 8.32201 115.82 7.89201 115.91C7.47201 116 7.10201 116.115 6.78201 116.255V114.53C7.10201 114.39 7.51201 114.275 8.01201 114.185C8.52201 114.095 9.02701 114.05 9.52701 114.05C10.727 114.05 11.632 114.3 12.242 114.8C12.852 115.3 13.157 115.945 13.157 116.735C13.157 117.205 13.047 117.65 12.827 118.07C12.617 118.48 12.287 118.78 11.837 118.97C12.357 119.13 12.737 119.4 12.977 119.78C13.227 120.15 13.352 120.595 13.352 121.115C13.352 121.775 13.187 122.32 12.857 122.75C12.537 123.18 12.087 123.5 11.507 123.71C10.937 123.91 10.267 124.01 9.49701 124.01ZM16.0582 123.86V116.03L14.4832 116.285V114.59L18.0832 114.05V123.86H16.0582Z" fill="#CDD8ED"/>
<path d="M13.5141 175.01C12.2541 175.01 11.3041 174.7 10.6641 174.08C10.0341 173.46 9.71906 172.505 9.71906 171.215V169.145C9.71906 168.345 9.88906 167.64 10.2291 167.03C10.5791 166.41 11.0741 165.925 11.7141 165.575C12.3541 165.225 13.1091 165.05 13.9791 165.05C14.4791 165.05 14.9141 165.08 15.2841 165.14C15.6541 165.2 16.0091 165.29 16.3491 165.41V167.15C15.7191 166.9 14.9741 166.775 14.1141 166.775C13.2941 166.775 12.6741 166.955 12.2541 167.315C11.8341 167.675 11.6241 168.15 11.6241 168.74V169.205C11.9441 168.975 12.3191 168.805 12.7491 168.695C13.1791 168.575 13.5741 168.515 13.9341 168.515C15.0841 168.515 15.9291 168.795 16.4691 169.355C17.0091 169.915 17.2791 170.705 17.2791 171.725C17.2791 172.365 17.1441 172.935 16.8741 173.435C16.6141 173.925 16.2091 174.31 15.6591 174.59C15.1091 174.87 14.3941 175.01 13.5141 175.01ZM13.5291 173.51C14.1791 173.51 14.6641 173.355 14.9841 173.045C15.3041 172.735 15.4641 172.32 15.4641 171.8C15.4641 171.24 15.3241 170.81 15.0441 170.51C14.7641 170.21 14.2691 170.06 13.5591 170.06C13.2291 170.06 12.8941 170.12 12.5541 170.24C12.2141 170.36 11.9041 170.515 11.6241 170.705V171.62C11.6241 172.88 12.2591 173.51 13.5291 173.51Z" fill="#222B45"/>
<path d="M8.19201 227.86V220.03L6.61701 220.285V218.59L10.217 218.05V227.86H8.19201ZM14.5068 228.01C14.2168 228.01 13.8918 227.99 13.5318 227.95C13.1718 227.91 12.8218 227.855 12.4818 227.785C12.1418 227.715 11.8568 227.635 11.6268 227.545V225.775C12.0368 225.945 12.4618 226.07 12.9018 226.15C13.3518 226.23 13.7868 226.27 14.2068 226.27C14.9168 226.27 15.4418 226.175 15.7818 225.985C16.1318 225.785 16.3068 225.425 16.3068 224.905C16.3068 224.475 16.1518 224.17 15.8418 223.99C15.5418 223.81 15.1068 223.72 14.5368 223.72H13.0218L13.1718 222.235H14.4318C15.0118 222.235 15.4368 222.14 15.7068 221.95C15.9768 221.75 16.1118 221.44 16.1118 221.02C16.1118 220.6 15.9568 220.29 15.6468 220.09C15.3468 219.88 14.8618 219.775 14.1918 219.775C13.7618 219.775 13.3318 219.82 12.9018 219.91C12.4818 220 12.1118 220.115 11.7918 220.255V218.53C12.1118 218.39 12.5218 218.275 13.0218 218.185C13.5318 218.095 14.0368 218.05 14.5368 218.05C15.7368 218.05 16.6418 218.3 17.2518 218.8C17.8618 219.3 18.1668 219.945 18.1668 220.735C18.1668 221.205 18.0568 221.65 17.8368 222.07C17.6268 222.48 17.2968 222.78 16.8468 222.97C17.3668 223.13 17.7468 223.4 17.9868 223.78C18.2368 224.15 18.3618 224.595 18.3618 225.115C18.3618 225.775 18.1968 226.32 17.8668 226.75C17.5468 227.18 17.0968 227.5 16.5168 227.71C15.9468 227.91 15.2768 228.01 14.5068 228.01Z" fill="#222B45"/>
<path d="M69.549 74.13C69.3583 74.13 69.1373 74.1083 68.886 74.065C68.6433 74.0303 68.4483 73.987 68.301 73.935L67.313 71.296H66.351L66.429 70.048H68.418L69.445 72.791C69.9823 72.791 70.3983 72.609 70.693 72.245C70.9877 71.8723 71.135 71.2657 71.135 70.425C71.135 69.8617 71.0613 69.4197 70.914 69.099C70.7753 68.7783 70.5327 68.553 70.186 68.423C69.8393 68.2843 69.367 68.215 68.769 68.215C68.4223 68.215 68.0497 68.2453 67.651 68.306C67.261 68.358 66.8883 68.4403 66.533 68.553V67.253C66.8883 67.1403 67.2957 67.045 67.755 66.967C68.223 66.889 68.7127 66.85 69.224 66.85C70.5067 66.85 71.421 67.1577 71.967 67.773C72.5217 68.3883 72.799 69.2723 72.799 70.425C72.799 71.231 72.6473 71.9113 72.344 72.466C72.0493 73.012 71.655 73.428 71.161 73.714C70.667 73.9913 70.1297 74.13 69.549 74.13Z" fill="#8F9BB3"/>
<path d="M64.58 123.01C64.29 123.01 63.965 122.99 63.605 122.95C63.245 122.91 62.895 122.855 62.555 122.785C62.215 122.715 61.93 122.635 61.7 122.545V120.775C62.11 120.945 62.535 121.07 62.975 121.15C63.425 121.23 63.86 121.27 64.28 121.27C64.99 121.27 65.515 121.175 65.855 120.985C66.205 120.785 66.38 120.425 66.38 119.905C66.38 119.475 66.225 119.17 65.915 118.99C65.615 118.81 65.18 118.72 64.61 118.72H63.095L63.245 117.235H64.505C65.085 117.235 65.51 117.14 65.78 116.95C66.05 116.75 66.185 116.44 66.185 116.02C66.185 115.6 66.03 115.29 65.72 115.09C65.42 114.88 64.935 114.775 64.265 114.775C63.835 114.775 63.405 114.82 62.975 114.91C62.555 115 62.185 115.115 61.865 115.255V113.53C62.185 113.39 62.595 113.275 63.095 113.185C63.605 113.095 64.11 113.05 64.61 113.05C65.81 113.05 66.715 113.3 67.325 113.8C67.935 114.3 68.24 114.945 68.24 115.735C68.24 116.205 68.13 116.65 67.91 117.07C67.7 117.48 67.37 117.78 66.92 117.97C67.44 118.13 67.82 118.4 68.06 118.78C68.31 119.15 68.435 119.595 68.435 120.115C68.435 120.775 68.27 121.32 67.94 121.75C67.62 122.18 67.17 122.5 66.59 122.71C66.02 122.91 65.35 123.01 64.58 123.01ZM73.9312 123.25C72.8712 123.25 72.0212 123.05 71.3812 122.65C70.7412 122.25 70.2762 121.67 69.9862 120.91C69.7062 120.14 69.5662 119.22 69.5662 118.15C69.5662 117.07 69.7062 116.15 69.9862 115.39C70.2762 114.63 70.7412 114.05 71.3812 113.65C72.0212 113.25 72.8712 113.05 73.9312 113.05C74.9912 113.05 75.8412 113.25 76.4812 113.65C77.1212 114.05 77.5812 114.63 77.8612 115.39C78.1512 116.15 78.2962 117.07 78.2962 118.15C78.2962 119.22 78.1512 120.14 77.8612 120.91C77.5812 121.67 77.1212 122.25 76.4812 122.65C75.8412 123.05 74.9912 123.25 73.9312 123.25ZM73.9312 121.51C74.8012 121.51 75.4012 121.22 75.7312 120.64C76.0712 120.06 76.2412 119.23 76.2412 118.15C76.2412 117.07 76.0712 116.24 75.7312 115.66C75.4012 115.08 74.8012 114.79 73.9312 114.79C73.0612 114.79 72.4562 115.08 72.1162 115.66C71.7862 116.24 71.6212 117.07 71.6212 118.15C71.6212 119.23 71.7862 120.06 72.1162 120.64C72.4562 121.22 73.0612 121.51 73.9312 121.51Z" fill="#CDD8ED"/>
<path d="M67.6596 174.86L71.0946 166.76H66.6696V165.2H73.3146V166.445L69.7596 174.86H67.6596Z" fill="#222B45"/>
<path d="M65.5382 226.86V219.03L63.9632 219.285V217.59L67.5632 217.05V226.86H65.5382ZM73.353 226.86V224.835H68.673V223.455L73.608 217.2H75.378V223.2H76.323V224.835H75.378V226.86H73.353ZM70.608 223.275H73.698V219.435L70.608 223.275Z" fill="#222B45"/>
<path d="M126.38 74.13C125.799 74.13 125.258 74.078 124.755 73.974C124.252 73.8613 123.828 73.7313 123.481 73.584V69.892H126.458L126.536 71.179H125.145V72.596C125.31 72.648 125.505 72.6913 125.73 72.726C125.964 72.752 126.185 72.765 126.393 72.765C127.104 72.765 127.602 72.596 127.888 72.258C128.174 71.92 128.317 71.3393 128.317 70.516C128.317 69.9267 128.239 69.4673 128.083 69.138C127.936 68.8 127.689 68.5617 127.342 68.423C127.004 68.2843 126.54 68.215 125.951 68.215C125.57 68.215 125.171 68.2453 124.755 68.306C124.348 68.358 123.953 68.4447 123.572 68.566V67.253C123.962 67.123 124.408 67.0233 124.911 66.954C125.414 66.8847 125.903 66.85 126.38 66.85C127.645 66.85 128.56 67.1663 129.123 67.799C129.695 68.423 129.981 69.3287 129.981 70.516C129.981 71.6773 129.695 72.57 129.123 73.194C128.56 73.818 127.645 74.13 126.38 74.13Z" fill="#8F9BB3"/>
<path d="M126.625 122.86V115.03L125.05 115.285V113.59L128.65 113.05V122.86H126.625Z" fill="#222B45"/>
<path d="M127.495 175.01C124.885 175.01 123.58 174.065 123.58 172.175C123.58 171.655 123.715 171.185 123.985 170.765C124.265 170.345 124.65 170.045 125.14 169.865C124.69 169.665 124.36 169.385 124.15 169.025C123.94 168.665 123.835 168.28 123.835 167.87C123.835 167.01 124.13 166.325 124.72 165.815C125.31 165.305 126.235 165.05 127.495 165.05C128.785 165.05 129.715 165.305 130.285 165.815C130.865 166.325 131.155 167.01 131.155 167.87C131.155 168.3 131.05 168.705 130.84 169.085C130.64 169.465 130.295 169.76 129.805 169.97C130.875 170.35 131.41 171.085 131.41 172.175C131.41 174.065 130.105 175.01 127.495 175.01ZM127.885 169.355C128.355 169.225 128.695 169.06 128.905 168.86C129.125 168.65 129.235 168.335 129.235 167.915C129.235 167.465 129.09 167.14 128.8 166.94C128.52 166.74 128.085 166.64 127.495 166.64C126.915 166.64 126.48 166.74 126.19 166.94C125.9 167.13 125.755 167.455 125.755 167.915C125.755 168.595 126.135 169.01 126.895 169.16L127.885 169.355ZM127.495 173.435C128.175 173.435 128.675 173.335 128.995 173.135C129.325 172.935 129.49 172.605 129.49 172.145C129.49 171.735 129.38 171.44 129.16 171.26C128.94 171.07 128.58 170.925 128.08 170.825L126.925 170.585C126.495 170.685 126.15 170.845 125.89 171.065C125.63 171.275 125.5 171.615 125.5 172.085C125.5 172.575 125.665 172.925 125.995 173.135C126.325 173.335 126.825 173.435 127.495 173.435Z" fill="#222B45"/>
<path d="M124.243 227.86V220.03L122.668 220.285V218.59L126.268 218.05V227.86H124.243ZM130.528 228.01C130.238 228.01 129.918 227.99 129.568 227.95C129.228 227.92 128.893 227.87 128.563 227.8C128.243 227.73 127.963 227.645 127.723 227.545V225.79C128.073 225.94 128.483 226.06 128.953 226.15C129.433 226.23 129.863 226.27 130.243 226.27C130.923 226.27 131.428 226.16 131.758 225.94C132.098 225.72 132.268 225.345 132.268 224.815C132.268 224.345 132.153 224 131.923 223.78C131.703 223.56 131.258 223.45 130.588 223.45H127.678V222.31L127.933 218.2H133.678L133.528 219.76H129.658L129.523 221.89H130.978C132.148 221.89 132.998 222.145 133.528 222.655C134.058 223.165 134.323 223.91 134.323 224.89C134.323 225.84 134.003 226.6 133.363 227.17C132.733 227.73 131.788 228.01 130.528 228.01Z" fill="#222B45"/>
<path d="M183.989 74L182.351 66.98H184.041L184.964 71.491L186.03 68.098V66.98H187.252L188.5 71.491L189.397 66.98H191.074L189.436 74H187.915L186.758 69.983L185.51 74H183.989Z" fill="#8F9BB3"/>
<g clip-path="url(#clip0_13_592)">
<path d="M164.444 39V38.22C164.66 37.756 164.944 37.34 165.296 36.972C165.648 36.596 166.032 36.224 166.448 35.856C166.76 35.576 167.016 35.344 167.216 35.16C167.416 34.976 167.572 34.812 167.684 34.668C167.796 34.524 167.876 34.376 167.924 34.224C167.972 34.072 167.996 33.884 167.996 33.66C167.996 32.916 167.524 32.544 166.58 32.544C166.26 32.544 165.94 32.58 165.62 32.652C165.308 32.716 165.008 32.804 164.72 32.916V31.488C165.024 31.384 165.376 31.304 165.776 31.248C166.184 31.184 166.572 31.152 166.94 31.152C167.836 31.152 168.508 31.376 168.956 31.824C169.412 32.264 169.64 32.864 169.64 33.624C169.64 34.152 169.508 34.604 169.244 34.98C168.988 35.348 168.652 35.712 168.236 36.072C167.908 36.36 167.596 36.64 167.3 36.912C167.004 37.176 166.756 37.456 166.556 37.752H169.712V39H164.444ZM174.088 39.312C173.24 39.312 172.56 39.152 172.048 38.832C171.536 38.512 171.164 38.048 170.932 37.44C170.708 36.824 170.596 36.088 170.596 35.232C170.596 34.368 170.708 33.632 170.932 33.024C171.164 32.416 171.536 31.952 172.048 31.632C172.56 31.312 173.24 31.152 174.088 31.152C174.936 31.152 175.616 31.312 176.128 31.632C176.64 31.952 177.008 32.416 177.232 33.024C177.464 33.632 177.58 34.368 177.58 35.232C177.58 36.088 177.464 36.824 177.232 37.44C177.008 38.048 176.64 38.512 176.128 38.832C175.616 39.152 174.936 39.312 174.088 39.312ZM174.088 37.92C174.784 37.92 175.264 37.688 175.528 37.224C175.8 36.76 175.936 36.096 175.936 35.232C175.936 34.368 175.8 33.704 175.528 33.24C175.264 32.776 174.784 32.544 174.088 32.544C173.392 32.544 172.908 32.776 172.636 33.24C172.372 33.704 172.24 34.368 172.24 35.232C172.24 36.096 172.372 36.76 172.636 37.224C172.908 37.688 173.392 37.92 174.088 37.92ZM178.471 39V38.22C178.687 37.756 178.971 37.34 179.323 36.972C179.675 36.596 180.059 36.224 180.475 35.856C180.787 35.576 181.043 35.344 181.243 35.16C181.443 34.976 181.599 34.812 181.711 34.668C181.823 34.524 181.903 34.376 181.951 34.224C181.999 34.072 182.023 33.884 182.023 33.66C182.023 32.916 181.551 32.544 180.607 32.544C180.287 32.544 179.967 32.58 179.647 32.652C179.335 32.716 179.035 32.804 178.747 32.916V31.488C179.051 31.384 179.403 31.304 179.803 31.248C180.211 31.184 180.599 31.152 180.967 31.152C181.863 31.152 182.535 31.376 182.983 31.824C183.439 32.264 183.667 32.864 183.667 33.624C183.667 34.152 183.535 34.604 183.271 34.98C183.015 35.348 182.679 35.712 182.263 36.072C181.935 36.36 181.623 36.64 181.327 36.912C181.031 37.176 180.783 37.456 180.583 37.752H183.739V39H178.471ZM184.624 39V38.22C184.84 37.756 185.124 37.34 185.476 36.972C185.828 36.596 186.212 36.224 186.628 35.856C186.94 35.576 187.196 35.344 187.396 35.16C187.596 34.976 187.752 34.812 187.864 34.668C187.976 34.524 188.056 34.376 188.104 34.224C188.152 34.072 188.176 33.884 188.176 33.66C188.176 32.916 187.704 32.544 186.76 32.544C186.44 32.544 186.12 32.58 185.8 32.652C185.488 32.716 185.188 32.804 184.9 32.916V31.488C185.204 31.384 185.556 31.304 185.956 31.248C186.364 31.184 186.752 31.152 187.12 31.152C188.016 31.152 188.688 31.376 189.136 31.824C189.592 32.264 189.82 32.864 189.82 33.624C189.82 34.152 189.688 34.604 189.424 34.98C189.168 35.348 188.832 35.712 188.416 36.072C188.088 36.36 187.776 36.64 187.48 36.912C187.184 37.176 186.936 37.456 186.736 37.752H189.892V39H184.624Z" fill="#8F9BB3"/>
<path d="M137.06 20.78L134.54 9.97997H137.14L138.56 16.92L140.2 11.7V9.97997H142.08L144 16.92L145.38 9.97997H147.96L145.44 20.78H143.1L141.32 14.6L139.4 20.78H137.06ZM156.992 23.98V14.2C156.992 13.36 156.792 12.7666 156.392 12.42C156.006 12.06 155.346 11.88 154.412 11.88C153.812 11.88 153.259 11.9666 152.752 12.14C152.259 12.3133 151.859 12.5333 151.552 12.8V13.08L153.772 13.68V15.32C153.239 15.4533 152.879 15.6733 152.692 15.98C152.519 16.2733 152.432 16.7333 152.432 17.36V17.94C152.432 18.2066 152.492 18.4 152.612 18.52C152.732 18.6266 152.919 18.68 153.172 18.68H154.232V20.78H151.792C151.179 20.78 150.679 20.58 150.292 20.18C149.919 19.78 149.732 19.2733 149.732 18.66V17.34C149.732 16.7266 149.832 16.1866 150.032 15.72C150.246 15.24 150.659 14.9066 151.272 14.72L149.232 14.18V11.6C149.779 11.1333 150.506 10.7133 151.412 10.34C152.332 9.96663 153.379 9.77997 154.552 9.77997C155.632 9.77997 156.552 9.91997 157.312 10.2C158.086 10.48 158.672 10.9466 159.072 11.6C159.486 12.2533 159.692 13.14 159.692 14.26V23.98H156.992ZM167.214 20.98C165.627 20.98 164.374 20.6066 163.454 19.86C162.534 19.1 162.074 17.96 162.074 16.44V9.97997H164.774V16.48C164.774 18.08 165.587 18.88 167.214 18.88C168.84 18.88 169.654 18.08 169.654 16.48V15.26H167.354V13.28H169.654V9.97997H172.354V13.28H173.494L173.314 15.26H172.354V16.44C172.354 17.96 171.894 19.1 170.974 19.86C170.054 20.6066 168.8 20.98 167.214 20.98ZM174.667 20.78V18.68H175.327C175.593 18.68 175.773 18.6266 175.867 18.52C175.96 18.4133 176.007 18.2266 176.007 17.96V17.34C176.007 16.7266 176.093 16.1933 176.267 15.74C176.44 15.2866 176.833 14.9466 177.447 14.72L175.407 14.18V11.6C175.953 11.1333 176.68 10.7133 177.587 10.34C178.507 9.96663 179.553 9.77997 180.727 9.77997C182.247 9.77997 183.44 10.12 184.307 10.8C185.187 11.48 185.627 12.6333 185.627 14.26V20.78H182.927V14.2C182.927 13.36 182.74 12.7666 182.367 12.42C182.007 12.06 181.413 11.88 180.587 11.88C179.987 11.88 179.433 11.9666 178.927 12.14C178.433 12.3133 178.033 12.5333 177.727 12.8V13.08L179.947 13.68V15.32C179.44 15.48 179.113 15.7066 178.967 16C178.82 16.28 178.747 16.7333 178.747 17.36V18.1C178.747 19.0466 178.52 19.7333 178.067 20.16C177.613 20.5733 176.96 20.78 176.107 20.78H174.667ZM191.831 20.78V14.14C191.831 13.42 191.691 12.8666 191.411 12.48C191.131 12.08 190.571 11.88 189.731 11.88C189.291 11.88 188.824 11.9333 188.331 12.04C187.838 12.1333 187.398 12.2533 187.011 12.4V10.42C187.411 10.2333 187.904 10.08 188.491 9.95997C189.078 9.83997 189.664 9.77997 190.251 9.77997C191.771 9.77997 192.864 10.1066 193.531 10.76C194.198 11.4 194.531 12.4 194.531 13.76V20.78H191.831ZM196.917 20.78V14.08C196.917 12.7733 197.317 11.7333 198.117 10.96C198.931 10.1733 200.231 9.77997 202.017 9.77997C203.804 9.77997 205.097 10.1733 205.897 10.96C206.697 11.7333 207.097 12.7733 207.097 14.08V20.78H204.397V13.88C204.397 13.2133 204.184 12.7133 203.757 12.38C203.344 12.0466 202.764 11.88 202.017 11.88C200.417 11.88 199.617 12.5466 199.617 13.88V15.82C199.871 15.6333 200.151 15.48 200.457 15.36C200.777 15.24 201.124 15.18 201.497 15.18H202.797L202.877 17.32H201.437C201.064 17.32 200.731 17.3733 200.437 17.48C200.144 17.5733 199.871 17.7133 199.617 17.9V20.78H196.917ZM215.716 20.98C214.969 20.98 214.296 20.8666 213.696 20.64C213.096 20.4133 212.556 20.1066 212.076 19.72L211.956 20.78H209.476V9.97997H212.176V17.76C212.469 18.08 212.856 18.3466 213.336 18.56C213.829 18.7733 214.323 18.88 214.816 18.88C215.456 18.88 215.936 18.7266 216.256 18.42C216.589 18.1 216.756 17.5733 216.756 16.84V9.97997H219.456V17C219.456 18.2533 219.123 19.2333 218.456 19.94C217.789 20.6333 216.876 20.98 215.716 20.98Z" fill="#222B45"/>
</g>
<path d="M183.457 122.86V121.57C183.737 121.04 184.077 120.565 184.477 120.145C184.877 119.725 185.322 119.295 185.812 118.855C186.222 118.485 186.552 118.18 186.802 117.94C187.062 117.7 187.252 117.475 187.372 117.265C187.502 117.045 187.567 116.795 187.567 116.515C187.567 115.805 187.102 115.45 186.172 115.45C185.742 115.45 185.322 115.5 184.912 115.6C184.512 115.7 184.132 115.825 183.772 115.975V113.575C184.182 113.415 184.662 113.29 185.212 113.2C185.762 113.1 186.317 113.05 186.877 113.05C188.077 113.05 188.972 113.335 189.562 113.905C190.152 114.465 190.447 115.22 190.447 116.17C190.447 116.62 190.392 117.01 190.282 117.34C190.182 117.66 190.022 117.955 189.802 118.225C189.582 118.495 189.297 118.785 188.947 119.095C188.637 119.365 188.332 119.635 188.032 119.905C187.732 120.175 187.492 120.44 187.312 120.7H190.537V122.86H183.457Z" fill="white"/>
<path d="M187.019 175.01C186.519 175.01 186.084 174.98 185.714 174.92C185.344 174.86 184.989 174.77 184.649 174.65V172.91C185.279 173.16 186.024 173.285 186.884 173.285C187.714 173.285 188.334 173.105 188.744 172.745C189.164 172.385 189.374 171.91 189.374 171.32V170.855C189.054 171.075 188.679 171.245 188.249 171.365C187.819 171.485 187.424 171.545 187.064 171.545C185.914 171.545 185.069 171.265 184.529 170.705C183.989 170.145 183.719 169.355 183.719 168.335C183.719 167.685 183.849 167.115 184.109 166.625C184.379 166.135 184.789 165.75 185.339 165.47C185.899 165.19 186.614 165.05 187.484 165.05C188.744 165.05 189.689 165.36 190.319 165.98C190.959 166.6 191.279 167.555 191.279 168.845V170.915C191.279 171.715 191.104 172.425 190.754 173.045C190.414 173.655 189.924 174.135 189.284 174.485C188.654 174.835 187.899 175.01 187.019 175.01ZM187.439 170C187.769 170 188.104 169.94 188.444 169.82C188.784 169.7 189.094 169.545 189.374 169.355V168.44C189.374 167.18 188.739 166.55 187.469 166.55C186.829 166.55 186.344 166.705 186.014 167.015C185.694 167.325 185.534 167.74 185.534 168.26C185.534 168.81 185.674 169.24 185.954 169.55C186.234 169.85 186.729 170 187.439 170Z" fill="#222B45"/>
<path d="M182.289 226.86V219.03L180.714 219.285V217.59L184.314 217.05V226.86H182.289ZM189.519 227.01C188.259 227.01 187.309 226.7 186.669 226.08C186.039 225.46 185.724 224.505 185.724 223.215V221.145C185.724 220.345 185.894 219.64 186.234 219.03C186.584 218.41 187.079 217.925 187.719 217.575C188.359 217.225 189.114 217.05 189.984 217.05C190.484 217.05 190.919 217.08 191.289 217.14C191.659 217.2 192.014 217.29 192.354 217.41V219.15C191.724 218.9 190.979 218.775 190.119 218.775C189.299 218.775 188.679 218.955 188.259 219.315C187.839 219.675 187.629 220.15 187.629 220.74V221.205C187.949 220.975 188.324 220.805 188.754 220.695C189.184 220.575 189.579 220.515 189.939 220.515C191.089 220.515 191.934 220.795 192.474 221.355C193.014 221.915 193.284 222.705 193.284 223.725C193.284 224.365 193.149 224.935 192.879 225.435C192.619 225.925 192.214 226.31 191.664 226.59C191.114 226.87 190.399 227.01 189.519 227.01ZM189.534 225.51C190.184 225.51 190.669 225.355 190.989 225.045C191.309 224.735 191.469 224.32 191.469 223.8C191.469 223.24 191.329 222.81 191.049 222.51C190.769 222.21 190.274 222.06 189.564 222.06C189.234 222.06 188.899 222.12 188.559 222.24C188.219 222.36 187.909 222.515 187.629 222.705V223.62C187.629 224.88 188.264 225.51 189.534 225.51Z" fill="#222B45"/>
<path d="M232.989 74L231.351 66.98H233.041L233.964 71.491L235.03 68.098V66.98H236.252L237.5 71.491L238.397 66.98H240.074L238.436 74H236.915L235.758 69.983L234.51 74H232.989ZM245.945 76.08V69.723C245.945 69.177 245.815 68.7913 245.555 68.566C245.304 68.332 244.875 68.215 244.268 68.215C243.878 68.215 243.518 68.2713 243.189 68.384C242.868 68.4967 242.608 68.6397 242.409 68.813V68.995L243.852 69.385V70.451C243.505 70.5377 243.271 70.6807 243.15 70.88C243.037 71.0707 242.981 71.3697 242.981 71.777V72.154C242.981 72.3273 243.02 72.453 243.098 72.531C243.176 72.6003 243.297 72.635 243.462 72.635H244.151V74H242.565C242.166 74 241.841 73.87 241.59 73.61C241.347 73.35 241.226 73.0207 241.226 72.622V71.764C241.226 71.3653 241.291 71.0143 241.421 70.711C241.56 70.399 241.828 70.1823 242.227 70.061L240.901 69.71V68.033C241.256 67.7297 241.729 67.4567 242.318 67.214C242.916 66.9713 243.596 66.85 244.359 66.85C245.061 66.85 245.659 66.941 246.153 67.123C246.656 67.305 247.037 67.6083 247.297 68.033C247.566 68.4577 247.7 69.034 247.7 69.762V76.08H245.945Z" fill="#8F9BB3"/>
<path d="M238.502 123.01C238.212 123.01 237.887 122.99 237.527 122.95C237.167 122.91 236.817 122.855 236.477 122.785C236.137 122.715 235.852 122.635 235.622 122.545V120.775C236.032 120.945 236.457 121.07 236.897 121.15C237.347 121.23 237.782 121.27 238.202 121.27C238.912 121.27 239.437 121.175 239.777 120.985C240.127 120.785 240.302 120.425 240.302 119.905C240.302 119.475 240.147 119.17 239.837 118.99C239.537 118.81 239.102 118.72 238.532 118.72H237.017L237.167 117.235H238.427C239.007 117.235 239.432 117.14 239.702 116.95C239.972 116.75 240.107 116.44 240.107 116.02C240.107 115.6 239.952 115.29 239.642 115.09C239.342 114.88 238.857 114.775 238.187 114.775C237.757 114.775 237.327 114.82 236.897 114.91C236.477 115 236.107 115.115 235.787 115.255V113.53C236.107 113.39 236.517 113.275 237.017 113.185C237.527 113.095 238.032 113.05 238.532 113.05C239.732 113.05 240.637 113.3 241.247 113.8C241.857 114.3 242.162 114.945 242.162 115.735C242.162 116.205 242.052 116.65 241.832 117.07C241.622 117.48 241.292 117.78 240.842 117.97C241.362 118.13 241.742 118.4 241.982 118.78C242.232 119.15 242.357 119.595 242.357 120.115C242.357 120.775 242.192 121.32 241.862 121.75C241.542 122.18 241.092 122.5 240.512 122.71C239.942 122.91 239.272 123.01 238.502 123.01Z" fill="#222B45"/>
<path d="M234.203 174.86V167.03L232.628 167.285V165.59L236.228 165.05V174.86H234.203ZM242.003 175.25C240.943 175.25 240.093 175.05 239.453 174.65C238.813 174.25 238.348 173.67 238.058 172.91C237.778 172.14 237.638 171.22 237.638 170.15C237.638 169.07 237.778 168.15 238.058 167.39C238.348 166.63 238.813 166.05 239.453 165.65C240.093 165.25 240.943 165.05 242.003 165.05C243.063 165.05 243.913 165.25 244.553 165.65C245.193 166.05 245.653 166.63 245.933 167.39C246.223 168.15 246.368 169.07 246.368 170.15C246.368 171.22 246.223 172.14 245.933 172.91C245.653 173.67 245.193 174.25 244.553 174.65C243.913 175.05 243.063 175.25 242.003 175.25ZM242.003 173.51C242.873 173.51 243.473 173.22 243.803 172.64C244.143 172.06 244.313 171.23 244.313 170.15C244.313 169.07 244.143 168.24 243.803 167.66C243.473 167.08 242.873 166.79 242.003 166.79C241.133 166.79 240.528 167.08 240.188 167.66C239.858 168.24 239.693 169.07 239.693 170.15C239.693 171.23 239.858 172.06 240.188 172.64C240.528 173.22 241.133 173.51 242.003 173.51Z" fill="#222B45"/>
<path d="M234.39 226.86V219.03L232.815 219.285V217.59L236.415 217.05V226.86H234.39ZM238.665 226.86L242.1 218.76H237.675V217.2H244.32V218.445L240.765 226.86H238.665Z" fill="#222B45"/>
<path d="M287.741 74V69.645C287.741 68.7957 288.001 68.1197 288.521 67.617C289.05 67.1057 289.895 66.85 291.056 66.85C291.29 66.85 291.507 66.863 291.706 66.889C291.914 66.9063 292.109 66.9367 292.291 66.98H295.021L294.93 68.319H294.007C294.128 68.475 294.215 68.6743 294.267 68.917C294.328 69.151 294.358 69.3937 294.358 69.645V74H292.603V69.515C292.603 69.0817 292.464 68.7567 292.187 68.54C291.918 68.3233 291.541 68.215 291.056 68.215C290.016 68.215 289.496 68.6483 289.496 69.515V70.776C289.661 70.6547 289.843 70.555 290.042 70.477C290.25 70.399 290.475 70.36 290.718 70.36H291.563L291.615 71.751H290.679C290.436 71.751 290.22 71.7857 290.029 71.855C289.838 71.9157 289.661 72.0067 289.496 72.128V74H287.741Z" fill="#8F9BB3"/>
<path d="M291.348 123.86V121.835H286.668V120.455L291.603 114.2H293.373V120.2H294.318V121.835H293.373V123.86H291.348ZM288.603 120.275H291.693V116.435L288.603 120.275Z" fill="#222B45"/>
<path d="M287.62 175.86V168.03L286.045 168.285V166.59L289.645 166.05V175.86H287.62ZM292.63 175.86V168.03L291.055 168.285V166.59L294.655 166.05V175.86H292.63Z" fill="#222B45"/>
<path d="M285.15 227.86V220.03L283.575 220.285V218.59L287.175 218.05V227.86H285.15ZM292.5 228.01C289.89 228.01 288.585 227.065 288.585 225.175C288.585 224.655 288.72 224.185 288.99 223.765C289.27 223.345 289.655 223.045 290.145 222.865C289.695 222.665 289.365 222.385 289.155 222.025C288.945 221.665 288.84 221.28 288.84 220.87C288.84 220.01 289.135 219.325 289.725 218.815C290.315 218.305 291.24 218.05 292.5 218.05C293.79 218.05 294.72 218.305 295.29 218.815C295.87 219.325 296.16 220.01 296.16 220.87C296.16 221.3 296.055 221.705 295.845 222.085C295.645 222.465 295.3 222.76 294.81 222.97C295.88 223.35 296.415 224.085 296.415 225.175C296.415 227.065 295.11 228.01 292.5 228.01ZM292.89 222.355C293.36 222.225 293.7 222.06 293.91 221.86C294.13 221.65 294.24 221.335 294.24 220.915C294.24 220.465 294.095 220.14 293.805 219.94C293.525 219.74 293.09 219.64 292.5 219.64C291.92 219.64 291.485 219.74 291.195 219.94C290.905 220.13 290.76 220.455 290.76 220.915C290.76 221.595 291.14 222.01 291.9 222.16L292.89 222.355ZM292.5 226.435C293.18 226.435 293.68 226.335 294 226.135C294.33 225.935 294.495 225.605 294.495 225.145C294.495 224.735 294.385 224.44 294.165 224.26C293.945 224.07 293.585 223.925 293.085 223.825L291.93 223.585C291.5 223.685 291.155 223.845 290.895 224.065C290.635 224.275 290.505 224.615 290.505 225.085C290.505 225.575 290.67 225.925 291 226.135C291.33 226.335 291.83 226.435 292.5 226.435Z" fill="#222B45"/>
<path d="M342.964 74.13C342.522 74.13 342.115 74.0607 341.742 73.922C341.369 73.7747 341.07 73.5407 340.845 73.22C340.628 72.8907 340.52 72.4573 340.52 71.92C340.52 71.218 340.758 70.6807 341.235 70.308C341.712 69.9267 342.396 69.736 343.289 69.736H345.278V69.398C345.278 68.9647 345.157 68.6613 344.914 68.488C344.671 68.306 344.242 68.215 343.627 68.215C343.202 68.215 342.799 68.2453 342.418 68.306C342.045 68.358 341.673 68.4447 341.3 68.566V67.253C341.655 67.1403 342.067 67.045 342.535 66.967C343.003 66.889 343.462 66.85 343.913 66.85C344.147 66.85 344.368 66.863 344.576 66.889C344.784 66.9063 344.979 66.9367 345.161 66.98H347.605L347.514 68.319H346.721C346.825 68.4837 346.903 68.6743 346.955 68.891C347.007 69.1077 347.033 69.3373 347.033 69.58V74H345.278V71.023H343.393C343.02 71.023 342.726 71.088 342.509 71.218C342.292 71.348 342.184 71.582 342.184 71.92C342.184 72.2407 342.279 72.4617 342.47 72.583C342.661 72.7043 342.981 72.765 343.432 72.765C343.597 72.765 343.757 72.7563 343.913 72.739C344.078 72.7217 344.216 72.6957 344.329 72.661V73.948C344.164 74 343.961 74.0433 343.718 74.078C343.484 74.1127 343.233 74.13 342.964 74.13Z" fill="#8F9BB3"/>
<path d="M344.523 123.01C344.233 123.01 343.913 122.99 343.563 122.95C343.223 122.92 342.888 122.87 342.558 122.8C342.238 122.73 341.958 122.645 341.718 122.545V120.79C342.068 120.94 342.478 121.06 342.948 121.15C343.428 121.23 343.858 121.27 344.238 121.27C344.918 121.27 345.423 121.16 345.753 120.94C346.093 120.72 346.263 120.345 346.263 119.815C346.263 119.345 346.148 119 345.918 118.78C345.698 118.56 345.253 118.45 344.583 118.45H341.673V117.31L341.928 113.2H347.673L347.523 114.76H343.653L343.518 116.89H344.973C346.143 116.89 346.993 117.145 347.523 117.655C348.053 118.165 348.318 118.91 348.318 119.89C348.318 120.84 347.998 121.6 347.358 122.17C346.728 122.73 345.783 123.01 344.523 123.01Z" fill="#222B45"/>
<path d="M340.28 174.86V167.03L338.705 167.285V165.59L342.305 165.05V174.86H340.28ZM343.715 174.86V173.885C343.985 173.305 344.34 172.785 344.78 172.325C345.22 171.855 345.7 171.39 346.22 170.93C346.61 170.58 346.93 170.29 347.18 170.06C347.43 169.83 347.625 169.625 347.765 169.445C347.905 169.265 348.005 169.08 348.065 168.89C348.125 168.7 348.155 168.465 348.155 168.185C348.155 167.255 347.565 166.79 346.385 166.79C345.985 166.79 345.585 166.835 345.185 166.925C344.795 167.005 344.42 167.115 344.06 167.255V165.47C344.44 165.34 344.88 165.24 345.38 165.17C345.89 165.09 346.375 165.05 346.835 165.05C347.955 165.05 348.795 165.33 349.355 165.89C349.925 166.44 350.21 167.19 350.21 168.14C350.21 168.8 350.045 169.365 349.715 169.835C349.395 170.295 348.975 170.75 348.455 171.2C348.045 171.56 347.655 171.91 347.285 172.25C346.915 172.58 346.605 172.93 346.355 173.3H350.3V174.86H343.715Z" fill="#222B45"/>
<path d="M340.289 226.86V219.03L338.714 219.285V217.59L342.314 217.05V226.86H340.289ZM347.024 227.01C346.524 227.01 346.089 226.98 345.719 226.92C345.349 226.86 344.994 226.77 344.654 226.65V224.91C345.284 225.16 346.029 225.285 346.889 225.285C347.719 225.285 348.339 225.105 348.749 224.745C349.169 224.385 349.379 223.91 349.379 223.32V222.855C349.059 223.075 348.684 223.245 348.254 223.365C347.824 223.485 347.429 223.545 347.069 223.545C345.919 223.545 345.074 223.265 344.534 222.705C343.994 222.145 343.724 221.355 343.724 220.335C343.724 219.685 343.854 219.115 344.114 218.625C344.384 218.135 344.794 217.75 345.344 217.47C345.904 217.19 346.619 217.05 347.489 217.05C348.749 217.05 349.694 217.36 350.324 217.98C350.964 218.6 351.284 219.555 351.284 220.845V222.915C351.284 223.715 351.109 224.425 350.759 225.045C350.419 225.655 349.929 226.135 349.289 226.485C348.659 226.835 347.904 227.01 347.024 227.01ZM347.444 222C347.774 222 348.109 221.94 348.449 221.82C348.789 221.7 349.099 221.545 349.379 221.355V220.44C349.379 219.18 348.744 218.55 347.474 218.55C346.834 218.55 346.349 218.705 346.019 219.015C345.699 219.325 345.539 219.74 345.539 220.26C345.539 220.81 345.679 221.24 345.959 221.55C346.239 221.85 346.734 222 347.444 222Z" fill="#222B45"/>
<path d="M3.78791 279.86V278.885C4.05791 278.305 4.41291 277.785 4.85291 277.325C5.29291 276.855 5.77291 276.39 6.29291 275.93C6.68291 275.58 7.00291 275.29 7.25291 275.06C7.50291 274.83 7.69791 274.625 7.83791 274.445C7.97791 274.265 8.07791 274.08 8.13791 273.89C8.19791 273.7 8.22791 273.465 8.22791 273.185C8.22791 272.255 7.63791 271.79 6.45791 271.79C6.05791 271.79 5.65791 271.835 5.25791 271.925C4.86791 272.005 4.49291 272.115 4.13291 272.255V270.47C4.51291 270.34 4.95291 270.24 5.45291 270.17C5.96291 270.09 6.44791 270.05 6.90791 270.05C8.02791 270.05 8.86791 270.33 9.42791 270.89C9.99791 271.44 10.2829 272.19 10.2829 273.14C10.2829 273.8 10.1179 274.365 9.78791 274.835C9.46791 275.295 9.04791 275.75 8.52791 276.2C8.11791 276.56 7.72791 276.91 7.35791 277.25C6.98791 277.58 6.67791 277.93 6.42791 278.3H10.3729V279.86H3.78791ZM15.8433 280.25C14.7833 280.25 13.9333 280.05 13.2933 279.65C12.6533 279.25 12.1883 278.67 11.8983 277.91C11.6183 277.14 11.4783 276.22 11.4783 275.15C11.4783 274.07 11.6183 273.15 11.8983 272.39C12.1883 271.63 12.6533 271.05 13.2933 270.65C13.9333 270.25 14.7833 270.05 15.8433 270.05C16.9033 270.05 17.7533 270.25 18.3933 270.65C19.0333 271.05 19.4933 271.63 19.7733 272.39C20.0633 273.15 20.2083 274.07 20.2083 275.15C20.2083 276.22 20.0633 277.14 19.7733 277.91C19.4933 278.67 19.0333 279.25 18.3933 279.65C17.7533 280.05 16.9033 280.25 15.8433 280.25ZM15.8433 278.51C16.7133 278.51 17.3133 278.22 17.6433 277.64C17.9833 277.06 18.1533 276.23 18.1533 275.15C18.1533 274.07 17.9833 273.24 17.6433 272.66C17.3133 272.08 16.7133 271.79 15.8433 271.79C14.9733 271.79 14.3683 272.08 14.0283 272.66C13.6983 273.24 13.5333 274.07 13.5333 275.15C13.5333 276.23 13.6983 277.06 14.0283 277.64C14.3683 278.22 14.9733 278.51 15.8433 278.51Z" fill="#222B45"/>
<path d="M64.7049 278.86V277.885C64.9749 277.305 65.3299 276.785 65.7699 276.325C66.2099 275.855 66.6899 275.39 67.2099 274.93C67.5999 274.58 67.9199 274.29 68.1699 274.06C68.4199 273.83 68.6149 273.625 68.7549 273.445C68.8949 273.265 68.9949 273.08 69.0549 272.89C69.1149 272.7 69.1449 272.465 69.1449 272.185C69.1449 271.255 68.5549 270.79 67.3749 270.79C66.9749 270.79 66.5749 270.835 66.1749 270.925C65.7849 271.005 65.4099 271.115 65.0499 271.255V269.47C65.4299 269.34 65.8699 269.24 66.3699 269.17C66.8799 269.09 67.3649 269.05 67.8249 269.05C68.9449 269.05 69.7849 269.33 70.3449 269.89C70.9149 270.44 71.1999 271.19 71.1999 272.14C71.1999 272.8 71.0349 273.365 70.7049 273.835C70.3849 274.295 69.9649 274.75 69.4449 275.2C69.0349 275.56 68.6449 275.91 68.2749 276.25C67.9049 276.58 67.5949 276.93 67.3449 277.3H71.2899V278.86H64.7049ZM73.9703 278.86V271.03L72.3953 271.285V269.59L75.9953 269.05V278.86H73.9703Z" fill="#222B45"/>
<path d="M119.865 278.86V277.885C120.135 277.305 120.49 276.785 120.93 276.325C121.37 275.855 121.85 275.39 122.37 274.93C122.76 274.58 123.08 274.29 123.33 274.06C123.58 273.83 123.775 273.625 123.915 273.445C124.055 273.265 124.155 273.08 124.215 272.89C124.275 272.7 124.305 272.465 124.305 272.185C124.305 271.255 123.715 270.79 122.535 270.79C122.135 270.79 121.735 270.835 121.335 270.925C120.945 271.005 120.57 271.115 120.21 271.255V269.47C120.59 269.34 121.03 269.24 121.53 269.17C122.04 269.09 122.525 269.05 122.985 269.05C124.105 269.05 124.945 269.33 125.505 269.89C126.075 270.44 126.36 271.19 126.36 272.14C126.36 272.8 126.195 273.365 125.865 273.835C125.545 274.295 125.125 274.75 124.605 275.2C124.195 275.56 123.805 275.91 123.435 276.25C123.065 276.58 122.755 276.93 122.505 277.3H126.45V278.86H119.865ZM127.555 278.86V277.885C127.825 277.305 128.18 276.785 128.62 276.325C129.06 275.855 129.54 275.39 130.06 274.93C130.45 274.58 130.77 274.29 131.02 274.06C131.27 273.83 131.465 273.625 131.605 273.445C131.745 273.265 131.845 273.08 131.905 272.89C131.965 272.7 131.995 272.465 131.995 272.185C131.995 271.255 131.405 270.79 130.225 270.79C129.825 270.79 129.425 270.835 129.025 270.925C128.635 271.005 128.26 271.115 127.9 271.255V269.47C128.28 269.34 128.72 269.24 129.22 269.17C129.73 269.09 130.215 269.05 130.675 269.05C131.795 269.05 132.635 269.33 133.195 269.89C133.765 270.44 134.05 271.19 134.05 272.14C134.05 272.8 133.885 273.365 133.555 273.835C133.235 274.295 132.815 274.75 132.295 275.2C131.885 275.56 131.495 275.91 131.125 276.25C130.755 276.58 130.445 276.93 130.195 277.3H134.14V278.86H127.555Z" fill="#222B45"/>
<path d="M179.777 279.86V278.885C180.047 278.305 180.402 277.785 180.842 277.325C181.282 276.855 181.762 276.39 182.282 275.93C182.672 275.58 182.992 275.29 183.242 275.06C183.492 274.83 183.687 274.625 183.827 274.445C183.967 274.265 184.067 274.08 184.127 273.89C184.187 273.7 184.217 273.465 184.217 273.185C184.217 272.255 183.627 271.79 182.447 271.79C182.047 271.79 181.647 271.835 181.247 271.925C180.857 272.005 180.482 272.115 180.122 272.255V270.47C180.502 270.34 180.942 270.24 181.442 270.17C181.952 270.09 182.437 270.05 182.897 270.05C184.017 270.05 184.857 270.33 185.417 270.89C185.987 271.44 186.272 272.19 186.272 273.14C186.272 273.8 186.107 274.365 185.777 274.835C185.457 275.295 185.037 275.75 184.517 276.2C184.107 276.56 183.717 276.91 183.347 277.25C182.977 277.58 182.667 277.93 182.417 278.3H186.362V279.86H179.777ZM190.347 280.01C190.057 280.01 189.732 279.99 189.372 279.95C189.012 279.91 188.662 279.855 188.322 279.785C187.982 279.715 187.697 279.635 187.467 279.545V277.775C187.877 277.945 188.302 278.07 188.742 278.15C189.192 278.23 189.627 278.27 190.047 278.27C190.757 278.27 191.282 278.175 191.622 277.985C191.972 277.785 192.147 277.425 192.147 276.905C192.147 276.475 191.992 276.17 191.682 275.99C191.382 275.81 190.947 275.72 190.377 275.72H188.862L189.012 274.235H190.272C190.852 274.235 191.277 274.14 191.547 273.95C191.817 273.75 191.952 273.44 191.952 273.02C191.952 272.6 191.797 272.29 191.487 272.09C191.187 271.88 190.702 271.775 190.032 271.775C189.602 271.775 189.172 271.82 188.742 271.91C188.322 272 187.952 272.115 187.632 272.255V270.53C187.952 270.39 188.362 270.275 188.862 270.185C189.372 270.095 189.877 270.05 190.377 270.05C191.577 270.05 192.482 270.3 193.092 270.8C193.702 271.3 194.007 271.945 194.007 272.735C194.007 273.205 193.897 273.65 193.677 274.07C193.467 274.48 193.137 274.78 192.687 274.97C193.207 275.13 193.587 275.4 193.827 275.78C194.077 276.15 194.202 276.595 194.202 277.115C194.202 277.775 194.037 278.32 193.707 278.75C193.387 279.18 192.937 279.5 192.357 279.71C191.787 279.91 191.117 280.01 190.347 280.01Z" fill="#222B45"/>
<path d="M230.623 278.86V277.885C230.893 277.305 231.248 276.785 231.688 276.325C232.128 275.855 232.608 275.39 233.128 274.93C233.518 274.58 233.838 274.29 234.088 274.06C234.338 273.83 234.533 273.625 234.673 273.445C234.813 273.265 234.913 273.08 234.973 272.89C235.033 272.7 235.063 272.465 235.063 272.185C235.063 271.255 234.473 270.79 233.293 270.79C232.893 270.79 232.493 270.835 232.093 270.925C231.703 271.005 231.328 271.115 230.968 271.255V269.47C231.348 269.34 231.788 269.24 232.288 269.17C232.798 269.09 233.283 269.05 233.743 269.05C234.863 269.05 235.703 269.33 236.263 269.89C236.833 270.44 237.118 271.19 237.118 272.14C237.118 272.8 236.953 273.365 236.623 273.835C236.303 274.295 235.883 274.75 235.363 275.2C234.953 275.56 234.563 275.91 234.193 276.25C233.823 276.58 233.513 276.93 233.263 277.3H237.208V278.86H230.623ZM242.693 278.86V276.835H238.013V275.455L242.948 269.2H244.718V275.2H245.663V276.835H244.718V278.86H242.693ZM239.948 275.275H243.038V271.435L239.948 275.275Z" fill="#222B45"/>
<path d="M282.828 279.86V278.885C283.098 278.305 283.453 277.785 283.893 277.325C284.333 276.855 284.813 276.39 285.333 275.93C285.723 275.58 286.043 275.29 286.293 275.06C286.543 274.83 286.738 274.625 286.878 274.445C287.018 274.265 287.118 274.08 287.178 273.89C287.238 273.7 287.268 273.465 287.268 273.185C287.268 272.255 286.678 271.79 285.498 271.79C285.098 271.79 284.698 271.835 284.298 271.925C283.908 272.005 283.533 272.115 283.173 272.255V270.47C283.553 270.34 283.993 270.24 284.493 270.17C285.003 270.09 285.488 270.05 285.948 270.05C287.068 270.05 287.908 270.33 288.468 270.89C289.038 271.44 289.323 272.19 289.323 273.14C289.323 273.8 289.158 274.365 288.828 274.835C288.508 275.295 288.088 275.75 287.568 276.2C287.158 276.56 286.768 276.91 286.398 277.25C286.028 277.58 285.718 277.93 285.468 278.3H289.413V279.86H282.828ZM293.368 280.01C293.078 280.01 292.758 279.99 292.408 279.95C292.068 279.92 291.733 279.87 291.403 279.8C291.083 279.73 290.803 279.645 290.563 279.545V277.79C290.913 277.94 291.323 278.06 291.793 278.15C292.273 278.23 292.703 278.27 293.083 278.27C293.763 278.27 294.268 278.16 294.598 277.94C294.938 277.72 295.108 277.345 295.108 276.815C295.108 276.345 294.993 276 294.763 275.78C294.543 275.56 294.098 275.45 293.428 275.45H290.518V274.31L290.773 270.2H296.518L296.368 271.76H292.498L292.363 273.89H293.818C294.988 273.89 295.838 274.145 296.368 274.655C296.898 275.165 297.163 275.91 297.163 276.89C297.163 277.84 296.843 278.6 296.203 279.17C295.573 279.73 294.628 280.01 293.368 280.01Z" fill="#222B45"/>
<path d="M336.874 278.86V277.885C337.144 277.305 337.499 276.785 337.939 276.325C338.379 275.855 338.859 275.39 339.379 274.93C339.769 274.58 340.089 274.29 340.339 274.06C340.589 273.83 340.784 273.625 340.924 273.445C341.064 273.265 341.164 273.08 341.224 272.89C341.284 272.7 341.314 272.465 341.314 272.185C341.314 271.255 340.724 270.79 339.544 270.79C339.144 270.79 338.744 270.835 338.344 270.925C337.954 271.005 337.579 271.115 337.219 271.255V269.47C337.599 269.34 338.039 269.24 338.539 269.17C339.049 269.09 339.534 269.05 339.994 269.05C341.114 269.05 341.954 269.33 342.514 269.89C343.084 270.44 343.369 271.19 343.369 272.14C343.369 272.8 343.204 273.365 342.874 273.835C342.554 274.295 342.134 274.75 341.614 275.2C341.204 275.56 340.814 275.91 340.444 276.25C340.074 276.58 339.764 276.93 339.514 277.3H343.459V278.86H336.874ZM348.359 279.01C347.099 279.01 346.149 278.7 345.509 278.08C344.879 277.46 344.564 276.505 344.564 275.215V273.145C344.564 272.345 344.734 271.64 345.074 271.03C345.424 270.41 345.919 269.925 346.559 269.575C347.199 269.225 347.954 269.05 348.824 269.05C349.324 269.05 349.759 269.08 350.129 269.14C350.499 269.2 350.854 269.29 351.194 269.41V271.15C350.564 270.9 349.819 270.775 348.959 270.775C348.139 270.775 347.519 270.955 347.099 271.315C346.679 271.675 346.469 272.15 346.469 272.74V273.205C346.789 272.975 347.164 272.805 347.594 272.695C348.024 272.575 348.419 272.515 348.779 272.515C349.929 272.515 350.774 272.795 351.314 273.355C351.854 273.915 352.124 274.705 352.124 275.725C352.124 276.365 351.989 276.935 351.719 277.435C351.459 277.925 351.054 278.31 350.504 278.59C349.954 278.87 349.239 279.01 348.359 279.01ZM348.374 277.51C349.024 277.51 349.509 277.355 349.829 277.045C350.149 276.735 350.309 276.32 350.309 275.8C350.309 275.24 350.169 274.81 349.889 274.51C349.609 274.21 349.114 274.06 348.404 274.06C348.074 274.06 347.739 274.12 347.399 274.24C347.059 274.36 346.749 274.515 346.469 274.705V275.62C346.469 276.88 347.104 277.51 348.374 277.51Z" fill="#222B45"/>
<path d="M4.97443 331.86V330.885C5.24443 330.305 5.59943 329.785 6.03943 329.325C6.47943 328.855 6.95943 328.39 7.47943 327.93C7.86943 327.58 8.18943 327.29 8.43943 327.06C8.68943 326.83 8.88443 326.625 9.02443 326.445C9.16443 326.265 9.26443 326.08 9.32443 325.89C9.38443 325.7 9.41443 325.465 9.41443 325.185C9.41443 324.255 8.82443 323.79 7.64443 323.79C7.24443 323.79 6.84443 323.835 6.44443 323.925C6.05443 324.005 5.67943 324.115 5.31943 324.255V322.47C5.69943 322.34 6.13943 322.24 6.63943 322.17C7.14943 322.09 7.63443 322.05 8.09443 322.05C9.21443 322.05 10.0544 322.33 10.6144 322.89C11.1844 323.44 11.4694 324.19 11.4694 325.14C11.4694 325.8 11.3044 326.365 10.9744 326.835C10.6544 327.295 10.2344 327.75 9.71443 328.2C9.30443 328.56 8.91443 328.91 8.54443 329.25C8.17443 329.58 7.86443 329.93 7.61443 330.3H11.5594V331.86H4.97443ZM13.5049 331.86L16.9399 323.76H12.5149V322.2H19.1599V323.445L15.6049 331.86H13.5049Z" fill="#222B45"/>
<path d="M62.7347 330.86V329.885C63.0047 329.305 63.3597 328.785 63.7997 328.325C64.2397 327.855 64.7197 327.39 65.2397 326.93C65.6297 326.58 65.9497 326.29 66.1997 326.06C66.4497 325.83 66.6447 325.625 66.7847 325.445C66.9247 325.265 67.0247 325.08 67.0847 324.89C67.1447 324.7 67.1747 324.465 67.1747 324.185C67.1747 323.255 66.5847 322.79 65.4047 322.79C65.0047 322.79 64.6047 322.835 64.2047 322.925C63.8147 323.005 63.4397 323.115 63.0797 323.255V321.47C63.4597 321.34 63.8997 321.24 64.3997 321.17C64.9097 321.09 65.3947 321.05 65.8547 321.05C66.9747 321.05 67.8147 321.33 68.3747 321.89C68.9447 322.44 69.2297 323.19 69.2297 324.14C69.2297 324.8 69.0647 325.365 68.7347 325.835C68.4147 326.295 67.9947 326.75 67.4747 327.2C67.0647 327.56 66.6747 327.91 66.3047 328.25C65.9347 328.58 65.6247 328.93 65.3747 329.3H69.3197V330.86H62.7347ZM74.3401 331.01C71.7301 331.01 70.4251 330.065 70.4251 328.175C70.4251 327.655 70.5601 327.185 70.8301 326.765C71.1101 326.345 71.4951 326.045 71.9851 325.865C71.5351 325.665 71.2051 325.385 70.9951 325.025C70.7851 324.665 70.6801 324.28 70.6801 323.87C70.6801 323.01 70.9751 322.325 71.5651 321.815C72.1551 321.305 73.0801 321.05 74.3401 321.05C75.6301 321.05 76.5601 321.305 77.1301 321.815C77.7101 322.325 78.0001 323.01 78.0001 323.87C78.0001 324.3 77.8951 324.705 77.6851 325.085C77.4851 325.465 77.1401 325.76 76.6501 325.97C77.7201 326.35 78.2551 327.085 78.2551 328.175C78.2551 330.065 76.9501 331.01 74.3401 331.01ZM74.7301 325.355C75.2001 325.225 75.5401 325.06 75.7501 324.86C75.9701 324.65 76.0801 324.335 76.0801 323.915C76.0801 323.465 75.9351 323.14 75.6451 322.94C75.3651 322.74 74.9301 322.64 74.3401 322.64C73.7601 322.64 73.3251 322.74 73.0351 322.94C72.7451 323.13 72.6001 323.455 72.6001 323.915C72.6001 324.595 72.9801 325.01 73.7401 325.16L74.7301 325.355ZM74.3401 329.435C75.0201 329.435 75.5201 329.335 75.8401 329.135C76.1701 328.935 76.3351 328.605 76.3351 328.145C76.3351 327.735 76.2251 327.44 76.0051 327.26C75.7851 327.07 75.4251 326.925 74.9251 326.825L73.7701 326.585C73.3401 326.685 72.9951 326.845 72.7351 327.065C72.4751 327.275 72.3451 327.615 72.3451 328.085C72.3451 328.575 72.5101 328.925 72.8401 329.135C73.1701 329.335 73.6701 329.435 74.3401 329.435Z" fill="#222B45"/>
<path d="M119.874 330.86V329.885C120.144 329.305 120.499 328.785 120.939 328.325C121.379 327.855 121.859 327.39 122.379 326.93C122.769 326.58 123.089 326.29 123.339 326.06C123.589 325.83 123.784 325.625 123.924 325.445C124.064 325.265 124.164 325.08 124.224 324.89C124.284 324.7 124.314 324.465 124.314 324.185C124.314 323.255 123.724 322.79 122.544 322.79C122.144 322.79 121.744 322.835 121.344 322.925C120.954 323.005 120.579 323.115 120.219 323.255V321.47C120.599 321.34 121.039 321.24 121.539 321.17C122.049 321.09 122.534 321.05 122.994 321.05C124.114 321.05 124.954 321.33 125.514 321.89C126.084 322.44 126.369 323.19 126.369 324.14C126.369 324.8 126.204 325.365 125.874 325.835C125.554 326.295 125.134 326.75 124.614 327.2C124.204 327.56 123.814 327.91 123.444 328.25C123.074 328.58 122.764 328.93 122.514 329.3H126.459V330.86H119.874ZM130.864 331.01C130.364 331.01 129.929 330.98 129.559 330.92C129.189 330.86 128.834 330.77 128.494 330.65V328.91C129.124 329.16 129.869 329.285 130.729 329.285C131.559 329.285 132.179 329.105 132.589 328.745C133.009 328.385 133.219 327.91 133.219 327.32V326.855C132.899 327.075 132.524 327.245 132.094 327.365C131.664 327.485 131.269 327.545 130.909 327.545C129.759 327.545 128.914 327.265 128.374 326.705C127.834 326.145 127.564 325.355 127.564 324.335C127.564 323.685 127.694 323.115 127.954 322.625C128.224 322.135 128.634 321.75 129.184 321.47C129.744 321.19 130.459 321.05 131.329 321.05C132.589 321.05 133.534 321.36 134.164 321.98C134.804 322.6 135.124 323.555 135.124 324.845V326.915C135.124 327.715 134.949 328.425 134.599 329.045C134.259 329.655 133.769 330.135 133.129 330.485C132.499 330.835 131.744 331.01 130.864 331.01ZM131.284 326C131.614 326 131.949 325.94 132.289 325.82C132.629 325.7 132.939 325.545 133.219 325.355V324.44C133.219 323.18 132.584 322.55 131.314 322.55C130.674 322.55 130.189 322.705 129.859 323.015C129.539 323.325 129.379 323.74 129.379 324.26C129.379 324.81 129.519 325.24 129.799 325.55C130.079 325.85 130.574 326 131.284 326Z" fill="#222B45"/>
<path d="M180.58 331.01C180.29 331.01 179.965 330.99 179.605 330.95C179.245 330.91 178.895 330.855 178.555 330.785C178.215 330.715 177.93 330.635 177.7 330.545V328.775C178.11 328.945 178.535 329.07 178.975 329.15C179.425 329.23 179.86 329.27 180.28 329.27C180.99 329.27 181.515 329.175 181.855 328.985C182.205 328.785 182.38 328.425 182.38 327.905C182.38 327.475 182.225 327.17 181.915 326.99C181.615 326.81 181.18 326.72 180.61 326.72H179.095L179.245 325.235H180.505C181.085 325.235 181.51 325.14 181.78 324.95C182.05 324.75 182.185 324.44 182.185 324.02C182.185 323.6 182.03 323.29 181.72 323.09C181.42 322.88 180.935 322.775 180.265 322.775C179.835 322.775 179.405 322.82 178.975 322.91C178.555 323 178.185 323.115 177.865 323.255V321.53C178.185 321.39 178.595 321.275 179.095 321.185C179.605 321.095 180.11 321.05 180.61 321.05C181.81 321.05 182.715 321.3 183.325 321.8C183.935 322.3 184.24 322.945 184.24 323.735C184.24 324.205 184.13 324.65 183.91 325.07C183.7 325.48 183.37 325.78 182.92 325.97C183.44 326.13 183.82 326.4 184.06 326.78C184.31 327.15 184.435 327.595 184.435 328.115C184.435 328.775 184.27 329.32 183.94 329.75C183.62 330.18 183.17 330.5 182.59 330.71C182.02 330.91 181.35 331.01 180.58 331.01ZM189.931 331.25C188.871 331.25 188.021 331.05 187.381 330.65C186.741 330.25 186.276 329.67 185.986 328.91C185.706 328.14 185.566 327.22 185.566 326.15C185.566 325.07 185.706 324.15 185.986 323.39C186.276 322.63 186.741 322.05 187.381 321.65C188.021 321.25 188.871 321.05 189.931 321.05C190.991 321.05 191.841 321.25 192.481 321.65C193.121 322.05 193.581 322.63 193.861 323.39C194.151 324.15 194.296 325.07 194.296 326.15C194.296 327.22 194.151 328.14 193.861 328.91C193.581 329.67 193.121 330.25 192.481 330.65C191.841 331.05 190.991 331.25 189.931 331.25ZM189.931 329.51C190.801 329.51 191.401 329.22 191.731 328.64C192.071 328.06 192.241 327.23 192.241 326.15C192.241 325.07 192.071 324.24 191.731 323.66C191.401 323.08 190.801 322.79 189.931 322.79C189.061 322.79 188.456 323.08 188.116 323.66C187.786 324.24 187.621 325.07 187.621 326.15C187.621 327.23 187.786 328.06 188.116 328.64C188.456 329.22 189.061 329.51 189.931 329.51Z" fill="#222B45"/>
<path d="M236.497 331.01C236.207 331.01 235.882 330.99 235.522 330.95C235.162 330.91 234.812 330.855 234.472 330.785C234.132 330.715 233.847 330.635 233.617 330.545V328.775C234.027 328.945 234.452 329.07 234.892 329.15C235.342 329.23 235.777 329.27 236.197 329.27C236.907 329.27 237.432 329.175 237.772 328.985C238.122 328.785 238.297 328.425 238.297 327.905C238.297 327.475 238.142 327.17 237.832 326.99C237.532 326.81 237.097 326.72 236.527 326.72H235.012L235.162 325.235H236.422C237.002 325.235 237.427 325.14 237.697 324.95C237.967 324.75 238.102 324.44 238.102 324.02C238.102 323.6 237.947 323.29 237.637 323.09C237.337 322.88 236.852 322.775 236.182 322.775C235.752 322.775 235.322 322.82 234.892 322.91C234.472 323 234.102 323.115 233.782 323.255V321.53C234.102 321.39 234.512 321.275 235.012 321.185C235.522 321.095 236.027 321.05 236.527 321.05C237.727 321.05 238.632 321.3 239.242 321.8C239.852 322.3 240.157 322.945 240.157 323.735C240.157 324.205 240.047 324.65 239.827 325.07C239.617 325.48 239.287 325.78 238.837 325.97C239.357 326.13 239.737 326.4 239.977 326.78C240.227 327.15 240.352 327.595 240.352 328.115C240.352 328.775 240.187 329.32 239.857 329.75C239.537 330.18 239.087 330.5 238.507 330.71C237.937 330.91 237.267 331.01 236.497 331.01ZM243.058 330.86V323.03L241.483 323.285V321.59L245.083 321.05V330.86H243.058Z" fill="#222B45"/>
<path d="M289.625 331.86V324.03L288.05 324.285V322.59L291.65 322.05V331.86H289.625Z" fill="#CDD8ED"/>
<path d="M340.71 330.86V329.885C340.98 329.305 341.335 328.785 341.775 328.325C342.215 327.855 342.695 327.39 343.215 326.93C343.605 326.58 343.925 326.29 344.175 326.06C344.425 325.83 344.62 325.625 344.76 325.445C344.9 325.265 345 325.08 345.06 324.89C345.12 324.7 345.15 324.465 345.15 324.185C345.15 323.255 344.56 322.79 343.38 322.79C342.98 322.79 342.58 322.835 342.18 322.925C341.79 323.005 341.415 323.115 341.055 323.255V321.47C341.435 321.34 341.875 321.24 342.375 321.17C342.885 321.09 343.37 321.05 343.83 321.05C344.95 321.05 345.79 321.33 346.35 321.89C346.92 322.44 347.205 323.19 347.205 324.14C347.205 324.8 347.04 325.365 346.71 325.835C346.39 326.295 345.97 326.75 345.45 327.2C345.04 327.56 344.65 327.91 344.28 328.25C343.91 328.58 343.6 328.93 343.35 329.3H347.295V330.86H340.71Z" fill="#CDD8ED"/>
<rect x="328.06" y="0.5" width="33" height="33" rx="9.5" stroke="#B8C4DB"/>
<rect x="36.5" y="33.5001" width="33" height="33" rx="9.5" transform="rotate(180 36.5 33.5001)" stroke="#B8C4DB"/>
<g clip-path="url(#clip1_13_592)">
<path d="M349.5 17.0002C349.5 17.2303 349.403 17.4603 349.211 17.6358L343.147 23.1562C342.761 23.5073 342.136 23.5073 341.751 23.1562C341.365 22.8051 341.365 22.2359 341.751 21.8847L347.116 17.0002L341.751 12.1156C341.365 11.7644 341.365 11.1952 341.751 10.8442C342.136 10.4929 342.762 10.4929 343.147 10.8442L349.211 16.3646C349.403 16.5401 349.5 16.7701 349.5 17.0002V17.0002Z" fill="#222B45"/>
</g>
<g clip-path="url(#clip2_13_592)">
<path d="M15.0614 17.0001C15.0614 16.77 15.1579 16.5399 15.3505 16.3645L21.4138 10.8441C21.7995 10.4929 22.4249 10.4929 22.8105 10.8441C23.196 11.1951 23.196 11.7644 22.8105 12.1156L17.4453 17.0001L22.8103 21.8847C23.1958 22.2359 23.1958 22.805 22.8103 23.156C22.4247 23.5074 21.7994 23.5074 21.4137 23.156L15.3503 17.6357C15.1577 17.4602 15.0614 17.2301 15.0614 17.0001V17.0001Z" fill="#222B45"/>
</g>
<g clip-path="url(#clip3_13_592)">
<path d="M349.5 17.0002C349.5 17.2303 349.403 17.4603 349.211 17.6358L343.147 23.1562C342.761 23.5073 342.136 23.5073 341.751 23.1562C341.365 22.8051 341.365 22.2359 341.751 21.8847L347.116 17.0002L341.751 12.1156C341.365 11.7644 341.365 11.1952 341.751 10.8442C342.136 10.4929 342.762 10.4929 343.147 10.8442L349.211 16.3646C349.403 16.5401 349.5 16.7701 349.5 17.0002V17.0002Z" fill="#222B45"/>
</g>
<g clip-path="url(#clip4_13_592)">
<path d="M15.0614 17.0001C15.0614 16.77 15.1579 16.5399 15.3505 16.3645L21.4138 10.8441C21.7995 10.4929 22.4249 10.4929 22.8105 10.8441C23.196 11.1951 23.196 11.7644 22.8105 12.1156L17.4453 17.0001L22.8103 21.8847C23.1958 22.2359 23.1958 22.805 22.8103 23.156C22.4247 23.5074 21.7994 23.5074 21.4137 23.156L15.3503 17.6357C15.1577 17.4602 15.0614 17.2301 15.0614 17.0001V17.0001Z" fill="#222B45"/>
</g>
<defs>
<clipPath id="clip0_13_592">
<rect width="110" height="47.4258" fill="white" transform="translate(125 6)"/>
</clipPath>
<clipPath id="clip1_13_592">
<rect width="12.8388" height="8.03819" fill="white" transform="translate(341.461 23.4196) rotate(-90)"/>
</clipPath>
<clipPath id="clip2_13_592">
<rect width="12.8388" height="8.03819" fill="white" transform="translate(23.0996 10.5807) rotate(90)"/>
</clipPath>
<clipPath id="clip3_13_592">
<rect width="12.8388" height="8.03819" fill="white" transform="translate(341.461 23.4196) rotate(-90)"/>
</clipPath>
<clipPath id="clip4_13_592">
<rect width="12.8388" height="8.03819" fill="white" transform="translate(23.0996 10.5807) rotate(90)"/>
</clipPath>
</defs>
</svg>
