<svg width="34" height="34" viewBox="0 0 34 34" fill="none" xmlns="http://www.w3.org/2000/svg">
<g clip-path="url(#clip0_44_24715)">
<path d="M17.0013 33.9973C13.6393 33.9973 10.3528 33.0003 7.55739 31.1325C4.76198 29.2647 2.58322 26.6098 1.29664 23.5037C0.0100503 20.3976 -0.326579 16.9798 0.329317 13.6824C0.985214 10.385 2.60418 7.3561 4.98148 4.97879C7.35878 2.60149 10.3876 0.982528 13.6851 0.326632C16.9825 -0.329265 20.4003 0.00736545 23.5064 1.29395C26.6125 2.58054 29.2673 4.7593 31.1352 7.55471C33.003 10.3501 34 13.6366 34 16.9986C33.9949 21.5054 32.2024 25.8262 29.0156 29.0129C25.8288 32.1997 21.5081 33.9922 17.0013 33.9973ZM17.0013 2.18002C14.0705 2.18002 11.2055 3.04912 8.76854 4.67741C6.33163 6.3057 4.43229 8.62005 3.3107 11.3278C2.18912 14.0356 1.89566 17.0151 2.46744 19.8896C3.03922 22.7642 4.45056 25.4046 6.52298 27.477C8.5954 29.5494 11.2358 30.9608 14.1104 31.5325C16.9849 32.1043 19.9644 31.8109 22.6722 30.6893C25.3799 29.5677 27.6943 27.6683 29.3226 25.2314C30.9509 22.7945 31.82 19.9295 31.82 16.9986C31.8156 13.0698 30.253 9.30317 27.4749 6.52507C24.6968 3.74698 20.9301 2.18435 17.0013 2.18002Z" fill="#D7BE8A"/>
<path d="M17.0014 29.5364C14.5222 29.5364 12.0987 28.8013 10.0373 27.4239C7.97589 26.0465 6.36924 24.0888 5.42049 21.7983C4.47174 19.5078 4.2235 16.9875 4.70717 14.5559C5.19084 12.1243 6.38469 9.8908 8.13775 8.13773C9.89081 6.38467 12.1243 5.19082 14.5559 4.70716C16.9875 4.22349 19.5079 4.47173 21.7983 5.42047C24.0888 6.36922 26.0465 7.97587 27.4239 10.0373C28.8013 12.0986 29.5364 14.5222 29.5364 17.0014C29.5321 20.3245 28.2101 23.5104 25.8602 25.8602C23.5104 28.2101 20.3246 29.5321 17.0014 29.5364ZM17.0014 5.55631C14.7378 5.55631 12.525 6.22755 10.6428 7.48515C8.76071 8.74275 7.29377 10.5302 6.42752 12.6215C5.56127 14.7128 5.33462 17.0141 5.77623 19.2342C6.21784 21.4543 7.30788 23.4936 8.9085 25.0942C10.5091 26.6949 12.5484 27.7849 14.7686 28.2265C16.9887 28.6681 19.2899 28.4415 21.3812 27.5752C23.4725 26.709 25.26 25.242 26.5176 23.3599C27.7752 21.4778 28.4464 19.265 28.4464 17.0014C28.4436 13.9663 27.237 11.0563 25.0914 8.90974C22.9458 6.76314 20.0364 5.55518 17.0014 5.55085V5.55631Z" fill="#C2A15C"/>
<path d="M16.4509 31.027C16.3973 31.0253 16.3446 31.0129 16.2959 30.9907C16.2471 30.9685 16.2032 30.9368 16.1667 30.8976C16.1302 30.8583 16.1019 30.8122 16.0833 30.7619C16.0647 30.7116 16.0563 30.6582 16.0585 30.6046C16.0598 30.5502 16.0722 30.4967 16.0948 30.4471C16.1174 30.3976 16.1498 30.3532 16.19 30.3165C16.2302 30.2799 16.2775 30.2517 16.3289 30.2338C16.3802 30.2159 16.4347 30.2085 16.489 30.2122C16.5426 30.214 16.5953 30.2263 16.6441 30.2486C16.6928 30.2708 16.7367 30.3024 16.7732 30.3417C16.8097 30.381 16.838 30.4271 16.8566 30.4773C16.8752 30.5276 16.8836 30.5811 16.8814 30.6346C16.8779 30.7406 16.8333 30.8411 16.757 30.9149C16.6807 30.9886 16.5788 31.0298 16.4727 31.0297L16.4509 31.027ZM18.2494 30.5801C18.2371 30.4726 18.2676 30.3645 18.3344 30.2793C18.4013 30.1941 18.499 30.1387 18.6064 30.125C18.6597 30.1186 18.7138 30.1227 18.7655 30.1371C18.8173 30.1516 18.8656 30.1761 18.9079 30.2092C18.9502 30.2424 18.9855 30.2835 19.0118 30.3303C19.0382 30.3771 19.055 30.4287 19.0614 30.482C19.0679 30.5353 19.0638 30.5894 19.0494 30.6412C19.0349 30.6929 19.0104 30.7413 18.9773 30.7835C18.9441 30.8258 18.903 30.8611 18.8562 30.8875C18.8093 30.9138 18.7578 30.9307 18.7045 30.9371H18.669C18.5673 30.94 18.4682 30.9051 18.3907 30.8392C18.3132 30.7733 18.2628 30.681 18.2494 30.5801ZM14.2082 30.76C14.1027 30.7389 14.0099 30.6769 13.9502 30.5875C13.8904 30.4981 13.8685 30.3886 13.8894 30.2831C13.8995 30.2303 13.9199 30.1801 13.9496 30.1353C13.9792 30.0906 14.0174 30.0521 14.062 30.0222C14.1067 29.9923 14.1568 29.9715 14.2094 29.9611C14.2621 29.9507 14.3163 29.9509 14.369 29.9615C14.475 29.9839 14.5681 30.0469 14.6282 30.1371C14.6883 30.2272 14.7107 30.3374 14.6905 30.4439C14.6712 30.536 14.6209 30.6186 14.548 30.6782C14.4751 30.7377 14.384 30.7704 14.29 30.7709C14.2624 30.7699 14.235 30.7663 14.2082 30.76ZM20.4131 30.215C20.3975 30.1638 20.3923 30.1101 20.3976 30.0569C20.4029 30.0037 20.4187 29.952 20.444 29.9049C20.4693 29.8578 20.5037 29.8162 20.5452 29.7824C20.5866 29.7487 20.6343 29.7234 20.6856 29.7081C20.7889 29.6775 20.9001 29.689 20.9951 29.7401C21.09 29.7911 21.1609 29.8775 21.1924 29.9806C21.223 30.084 21.2115 30.1952 21.1605 30.2901C21.1094 30.385 21.023 30.456 20.9199 30.4875C20.8836 30.498 20.846 30.5035 20.8082 30.5038C20.719 30.5038 20.6323 30.4748 20.561 30.4212C20.4898 30.3677 20.4379 30.2924 20.4131 30.2068V30.215ZM12.0364 30.1441C11.9858 30.1254 11.9394 30.0967 11.9001 30.0599C11.8607 30.0231 11.829 29.9787 11.8069 29.9295C11.7849 29.8803 11.7728 29.8272 11.7715 29.7733C11.7702 29.7193 11.7796 29.6657 11.7993 29.6155C11.8378 29.5144 11.9147 29.4327 12.0133 29.3883C12.1119 29.3439 12.224 29.3403 12.3252 29.3784C12.4265 29.4174 12.5082 29.4949 12.5526 29.5939C12.597 29.6929 12.6005 29.8055 12.5623 29.907C12.534 29.9859 12.4823 30.0542 12.4141 30.1029C12.346 30.1516 12.2646 30.1784 12.1808 30.1795C12.1305 30.1735 12.0816 30.1587 12.0364 30.1359V30.1441ZM22.4841 29.4874C22.4381 29.3894 22.4327 29.2772 22.4689 29.1752C22.5051 29.0731 22.5801 28.9895 22.6775 28.9424C22.7756 28.8965 22.8877 28.891 22.9898 28.9272C23.0918 28.9634 23.1754 29.0384 23.2225 29.1359C23.246 29.1843 23.2596 29.2369 23.2626 29.2906C23.2656 29.3443 23.2578 29.3981 23.2398 29.4488C23.2218 29.4996 23.1939 29.5462 23.1577 29.586C23.1216 29.6258 23.0778 29.6581 23.0291 29.6809C22.9747 29.7072 22.9151 29.7212 22.8547 29.7217C22.7771 29.7216 22.7011 29.6995 22.6355 29.658C22.57 29.6166 22.5175 29.5574 22.4841 29.4874ZM9.99261 29.1686C9.9027 29.1141 9.83724 29.027 9.80983 28.9255C9.78243 28.824 9.79519 28.7159 9.84545 28.6236C9.89902 28.5327 9.98587 28.4662 10.0876 28.4382C10.1893 28.4102 10.2979 28.423 10.3905 28.4737C10.4373 28.5002 10.4783 28.5358 10.5113 28.5784C10.5442 28.621 10.5683 28.6697 10.5823 28.7216C10.5962 28.7736 10.5997 28.8278 10.5925 28.8812C10.5853 28.9345 10.5676 28.9859 10.5403 29.0323C10.5046 29.0947 10.4531 29.1465 10.3908 29.1824C10.3286 29.2183 10.2579 29.237 10.1861 29.2367C10.1171 29.2298 10.0507 29.2064 9.99261 29.1686ZM24.4134 28.4464C24.3521 28.357 24.3287 28.247 24.3481 28.1404C24.3675 28.0337 24.4281 27.9391 24.5169 27.8769C24.6064 27.8157 24.7163 27.7922 24.823 27.8116C24.9296 27.831 25.0243 27.8917 25.0865 27.9805C25.1477 28.0699 25.1711 28.1799 25.1518 28.2865C25.1324 28.3931 25.0717 28.4878 24.9829 28.55C24.9149 28.5974 24.8342 28.6231 24.7513 28.6236C24.6849 28.6233 24.6195 28.607 24.5607 28.5762C24.5019 28.5454 24.4514 28.5009 24.4134 28.4464ZM8.13414 27.8851C8.09235 27.8513 8.05767 27.8095 8.03214 27.7622C8.0066 27.7149 7.99071 27.663 7.98539 27.6095C7.98006 27.5561 7.98541 27.502 8.00113 27.4506C8.01684 27.3992 8.0426 27.3515 8.07692 27.3101C8.11071 27.2683 8.15247 27.2336 8.19977 27.2081C8.24707 27.1826 8.29896 27.1667 8.35245 27.1613C8.40594 27.156 8.45995 27.1614 8.51135 27.1771C8.56276 27.1928 8.61053 27.2186 8.6519 27.2529C8.73569 27.3216 8.78879 27.4207 8.79952 27.5285C8.81025 27.6363 8.77774 27.744 8.70912 27.8279C8.67068 27.8745 8.62243 27.9121 8.56779 27.9381C8.51316 27.964 8.45349 27.9775 8.39302 27.9777C8.29854 27.9781 8.20692 27.9453 8.13414 27.8851ZM26.1519 27.1085C26.076 27.0315 26.0335 26.9277 26.0335 26.8196C26.0335 26.7115 26.076 26.6077 26.1519 26.5307C26.2294 26.4547 26.3336 26.4121 26.4421 26.4121C26.5507 26.4121 26.6549 26.4547 26.7324 26.5307C26.8089 26.6074 26.8519 26.7113 26.8519 26.8196C26.8519 26.9279 26.8089 27.0318 26.7324 27.1085C26.6593 27.1797 26.5619 27.2206 26.4599 27.2229C26.4034 27.2263 26.3468 27.2179 26.2938 27.1982C26.2408 27.1785 26.1925 27.1479 26.1519 27.1085ZM6.50459 26.3236C6.46875 26.2836 6.44117 26.2369 6.42342 26.1861C6.40566 26.1354 6.39809 26.0817 6.40113 26.028C6.40416 25.9744 6.41775 25.9218 6.44112 25.8734C6.46448 25.825 6.49716 25.7817 6.53729 25.7459C6.57752 25.7103 6.62439 25.6829 6.67521 25.6654C6.72604 25.6478 6.77982 25.6405 6.83349 25.6438C6.88715 25.6471 6.93964 25.6609 6.98794 25.6845C7.03625 25.7081 7.07942 25.741 7.11499 25.7814C7.15058 25.8214 7.17791 25.868 7.1954 25.9186C7.21289 25.9692 7.2202 26.0228 7.21691 26.0762C7.21361 26.1297 7.19978 26.1819 7.17621 26.23C7.15264 26.2781 7.1198 26.321 7.07957 26.3563C7.00525 26.4243 6.90778 26.4614 6.80706 26.4599C6.74987 26.4599 6.69332 26.4478 6.64117 26.4243C6.58902 26.4008 6.54246 26.3665 6.50459 26.3236ZM27.6561 25.5061C27.5694 25.4411 27.5121 25.3443 27.4968 25.2369C27.4814 25.1296 27.5093 25.0206 27.5744 24.9339C27.6394 24.8472 27.7363 24.7898 27.8436 24.7745C27.9509 24.7592 28.0599 24.7871 28.1466 24.8521C28.2334 24.9172 28.2907 25.014 28.306 25.1213C28.3214 25.2286 28.2934 25.3377 28.2284 25.4244C28.19 25.4748 28.1406 25.5158 28.0839 25.5442C28.0272 25.5725 27.9648 25.5875 27.9014 25.5879C27.8154 25.5883 27.7315 25.5616 27.6616 25.5116L27.6561 25.5061ZM5.14208 24.517C5.11342 24.4715 5.09399 24.4209 5.08492 24.3679C5.07584 24.315 5.07729 24.2608 5.08919 24.2084C5.10108 24.156 5.12319 24.1065 5.15424 24.0626C5.18529 24.0188 5.22468 23.9815 5.27016 23.9529C5.31532 23.9237 5.36583 23.9039 5.41874 23.8944C5.47165 23.8849 5.52592 23.886 5.57839 23.8977C5.63086 23.9093 5.6805 23.9313 5.72442 23.9623C5.76834 23.9933 5.80566 24.0327 5.83423 24.0782C5.89165 24.1699 5.91069 24.2804 5.88723 24.386C5.86377 24.4915 5.7997 24.5836 5.70888 24.6423C5.64286 24.684 5.56623 24.7058 5.48816 24.705C5.41985 24.7057 5.35245 24.6893 5.29203 24.6575C5.23161 24.6256 5.18008 24.5792 5.14208 24.5224V24.517ZM28.8851 23.6995C28.791 23.649 28.7203 23.5638 28.6882 23.4619C28.6562 23.3601 28.6652 23.2497 28.7134 23.1545C28.7639 23.0603 28.8491 22.9896 28.951 22.9576C29.0528 22.9255 29.1632 22.9345 29.2584 22.9828C29.3531 23.0327 29.4242 23.1179 29.4564 23.22C29.4885 23.322 29.4791 23.4326 29.4301 23.5278C29.3956 23.5939 29.3435 23.6492 29.2795 23.6877C29.2156 23.7262 29.1423 23.7463 29.0677 23.7458C29.0037 23.7425 28.9413 23.7248 28.8851 23.694V23.6995ZM4.0875 22.5304C4.06469 22.4807 4.05217 22.4268 4.0507 22.3721C4.04923 22.3174 4.05883 22.2629 4.07894 22.212C4.09905 22.1611 4.12925 22.1148 4.16771 22.0759C4.20618 22.0369 4.25212 22.0062 4.30278 21.9854C4.35259 21.963 4.40639 21.9508 4.461 21.9495C4.51561 21.9482 4.56993 21.9579 4.62074 21.978C4.67154 21.998 4.71781 22.0281 4.75681 22.0664C4.7958 22.1046 4.82674 22.1503 4.84778 22.2007C4.86982 22.2506 4.88174 22.3043 4.88283 22.3588C4.88392 22.4133 4.87417 22.4675 4.85414 22.5182C4.83411 22.5689 4.8042 22.6152 4.76615 22.6542C4.7281 22.6933 4.68267 22.7244 4.6325 22.7457C4.58148 22.7667 4.52691 22.7778 4.47173 22.7784C4.39002 22.7795 4.3099 22.7558 4.24183 22.7106C4.17377 22.6654 4.12093 22.6007 4.09023 22.525L4.0875 22.5304ZM29.8035 21.7129C29.7512 21.6974 29.7026 21.6716 29.6604 21.637C29.6183 21.6024 29.5835 21.5597 29.5581 21.5115C29.5327 21.4632 29.5172 21.4104 29.5126 21.3561C29.5079 21.3017 29.5142 21.247 29.531 21.1952C29.5465 21.1429 29.5723 21.0943 29.6069 21.0521C29.6415 21.01 29.6842 20.9752 29.7324 20.9498C29.7807 20.9244 29.8335 20.909 29.8878 20.9043C29.9421 20.8996 29.9968 20.9059 30.0487 20.9227C30.0997 20.9396 30.1468 20.9664 30.1874 21.0017C30.2279 21.0369 30.2611 21.0799 30.2849 21.128C30.3087 21.1762 30.3228 21.2286 30.3262 21.2822C30.3296 21.3359 30.3224 21.3896 30.3049 21.4404C30.2769 21.5206 30.2246 21.59 30.1552 21.6389C30.0858 21.6878 30.0028 21.7137 29.9179 21.7129C29.8803 21.7145 29.8427 21.7108 29.8062 21.702L29.8035 21.7129ZM3.37082 20.394C3.35783 20.3419 3.35529 20.2878 3.36336 20.2347C3.37142 20.1817 3.38992 20.1307 3.4178 20.0849C3.44567 20.039 3.48237 19.9991 3.52575 19.9675C3.56914 19.9359 3.61836 19.9132 3.67057 19.9008C3.72265 19.8878 3.77679 19.8853 3.82985 19.8933C3.88292 19.9014 3.93385 19.9199 3.97972 19.9478C4.02559 19.9756 4.06547 20.0123 4.09707 20.0557C4.12867 20.0991 4.15135 20.1483 4.1638 20.2005C4.18944 20.3057 4.17265 20.4166 4.11705 20.5095C4.06146 20.6023 3.97155 20.6695 3.86677 20.6965C3.83329 20.7005 3.79944 20.7005 3.76595 20.6965C3.67453 20.696 3.58592 20.6648 3.5143 20.608C3.44267 20.5512 3.39215 20.472 3.37082 20.3831V20.394ZM30.3866 19.5874C30.2797 19.57 30.184 19.5109 30.1206 19.423C30.0573 19.3351 30.0314 19.2257 30.0487 19.1187C30.0661 19.0118 30.1252 18.9161 30.2131 18.8527C30.301 18.7894 30.4104 18.7635 30.5174 18.7808C30.6243 18.7982 30.72 18.8573 30.7834 18.9452C30.8467 19.0331 30.8726 19.1425 30.8553 19.2495C30.8398 19.3453 30.7907 19.4324 30.7168 19.4953C30.6429 19.5582 30.549 19.5928 30.452 19.5929L30.3866 19.5874ZM3.00022 18.1541C2.99195 18.046 3.02692 17.9391 3.09743 17.8568C3.16795 17.7746 3.26824 17.7237 3.37627 17.7153C3.42963 17.7109 3.48334 17.717 3.53432 17.7333C3.5853 17.7497 3.63253 17.776 3.67331 17.8107C3.71409 17.8454 3.7476 17.8878 3.77191 17.9355C3.79623 17.9832 3.81087 18.0353 3.815 18.0887C3.81985 18.1422 3.81401 18.1962 3.79781 18.2475C3.78162 18.2988 3.75539 18.3464 3.72065 18.3874C3.68592 18.4285 3.64337 18.4623 3.59548 18.4868C3.54759 18.5113 3.4953 18.526 3.44167 18.5301H3.40897C3.30713 18.5285 3.20951 18.4891 3.13501 18.4196C3.06051 18.3502 3.01443 18.2555 3.00567 18.1541H3.00022ZM30.2177 16.9986V16.9714V16.9441C30.2177 16.8362 30.2603 16.7326 30.3364 16.6561C30.4125 16.5795 30.5157 16.5361 30.6237 16.5354C30.677 16.5339 30.7301 16.543 30.7799 16.5621C30.8297 16.5812 30.8753 16.6099 30.914 16.6466C30.9527 16.6833 30.9838 16.7272 31.0056 16.7759C31.0273 16.8247 31.0392 16.8772 31.0406 16.9305V16.9605V16.9877C31.0406 17.0962 30.9975 17.2001 30.9209 17.2768C30.8442 17.3534 30.7403 17.3965 30.6319 17.3965C30.5253 17.3965 30.423 17.355 30.3466 17.2807C30.2703 17.2063 30.2259 17.1052 30.2231 16.9986H30.2177ZM3.37355 16.3365C3.31993 16.3327 3.26759 16.3183 3.21958 16.2941C3.17156 16.27 3.12882 16.2365 3.09384 16.1957C3.05886 16.1549 3.03233 16.1075 3.01579 16.0564C2.99925 16.0052 2.99303 15.9513 2.9975 15.8977C3.00585 15.7897 3.05675 15.6894 3.13902 15.6189C3.22129 15.5484 3.32818 15.5134 3.43622 15.5217C3.54425 15.53 3.64455 15.5809 3.71506 15.6632C3.78558 15.7455 3.82054 15.8524 3.81227 15.9604C3.80469 16.0635 3.7583 16.16 3.68245 16.2303C3.6066 16.3005 3.50693 16.3395 3.40352 16.3392H3.37355V16.3365ZM30.0405 14.8241C30.0316 14.7713 30.0331 14.7172 30.0452 14.665C30.0572 14.6128 30.0794 14.5635 30.1106 14.52C30.1417 14.4764 30.1812 14.4394 30.2267 14.4112C30.2722 14.3829 30.3228 14.364 30.3757 14.3554C30.483 14.338 30.5928 14.3638 30.6811 14.4271C30.7694 14.4904 30.8291 14.5861 30.8471 14.6933C30.8637 14.8001 30.8375 14.9092 30.7743 14.9969C30.7111 15.0846 30.6158 15.1439 30.5092 15.162H30.4438C30.3484 15.1614 30.2562 15.1272 30.1834 15.0654C30.1107 15.0036 30.062 14.9182 30.046 14.8241H30.0405ZM3.6515 14.1619C3.54643 14.1361 3.45588 14.0697 3.39969 13.9772C3.34351 13.8848 3.32626 13.7738 3.35175 13.6687C3.3776 13.5635 3.44388 13.4727 3.53622 13.4161C3.62856 13.3595 3.7395 13.3415 3.84497 13.3662C3.95075 13.392 4.04198 13.4587 4.09868 13.5517C4.15537 13.6446 4.17291 13.7563 4.14745 13.8622C4.12505 13.9508 4.07379 14.0294 4.00175 14.0856C3.92972 14.1419 3.841 14.1726 3.7496 14.1728C3.7184 14.1728 3.6873 14.1691 3.65695 14.1619H3.6515ZM29.5391 12.7612C29.5216 12.7104 29.5144 12.6567 29.5178 12.6031C29.5212 12.5494 29.5352 12.497 29.5591 12.4489C29.5829 12.4007 29.616 12.3578 29.6566 12.3225C29.6971 12.2872 29.7443 12.2604 29.7953 12.2435C29.8979 12.2096 30.0098 12.2175 30.1067 12.2654C30.2035 12.3134 30.2777 12.3975 30.313 12.4996C30.3476 12.6023 30.3401 12.7144 30.2921 12.8115C30.2441 12.9086 30.1595 12.9826 30.0569 13.0174C30.015 13.0326 29.9706 13.04 29.9261 13.0392C29.8391 13.0413 29.7538 13.0154 29.6827 12.9654C29.6115 12.9153 29.5584 12.8438 29.531 12.7612H29.5391ZM4.29188 12.0582C4.24147 12.0372 4.19578 12.0062 4.15753 11.9672C4.11927 11.9282 4.08923 11.882 4.06916 11.8311C4.04909 11.7803 4.03941 11.726 4.04069 11.6714C4.04196 11.6168 4.05418 11.563 4.0766 11.5132C4.09733 11.4625 4.1281 11.4166 4.16704 11.3781C4.20598 11.3397 4.2523 11.3095 4.3032 11.2894C4.35411 11.2692 4.40856 11.2596 4.46328 11.2611C4.51799 11.2626 4.57185 11.2751 4.6216 11.2979C4.6725 11.3184 4.71872 11.349 4.75747 11.3878C4.79623 11.4266 4.82671 11.4729 4.84709 11.5238C4.86746 11.5748 4.8773 11.6293 4.87602 11.6841C4.87473 11.739 4.86234 11.793 4.8396 11.8429C4.80882 11.9173 4.75664 11.9808 4.68968 12.0254C4.62273 12.0701 4.54402 12.0938 4.46355 12.0936C4.40171 12.0954 4.34025 12.0833 4.2837 12.0582H4.29188ZM28.6971 10.8101C28.6486 10.7152 28.6392 10.6051 28.6707 10.5033C28.7023 10.4015 28.7724 10.316 28.866 10.2651C28.961 10.2167 29.0711 10.2072 29.1729 10.2388C29.2747 10.2703 29.3602 10.3404 29.411 10.4341C29.4595 10.529 29.469 10.6391 29.4374 10.7409C29.4058 10.8428 29.3358 10.9282 29.2421 10.9791C29.1824 11.0101 29.1159 11.026 29.0486 11.0254C28.9748 11.0256 28.9022 11.0057 28.8388 10.9678C28.7755 10.9299 28.7236 10.8753 28.6889 10.8101H28.6971ZM5.26198 10.0853C5.17071 10.027 5.10608 9.93514 5.0821 9.82955C5.05813 9.72395 5.07674 9.61317 5.13391 9.5212C5.16226 9.47545 5.19942 9.43579 5.24324 9.40453C5.28706 9.37327 5.33665 9.35104 5.38914 9.33912C5.44163 9.3272 5.49597 9.32584 5.54899 9.33511C5.60201 9.34438 5.65265 9.3641 5.69798 9.39313C5.74346 9.42173 5.78285 9.45902 5.8139 9.50286C5.84495 9.5467 5.86706 9.59623 5.87895 9.64862C5.89085 9.70101 5.8923 9.75523 5.88322 9.80818C5.87415 9.86113 5.85472 9.91177 5.82606 9.95721C5.78883 10.0153 5.73767 10.0632 5.67724 10.0965C5.6168 10.1298 5.54899 10.1475 5.47998 10.148C5.39648 10.1511 5.31393 10.1293 5.24291 10.0853H5.26198ZM27.5444 9.02798C27.4791 8.94159 27.4507 8.83279 27.4655 8.7255C27.4803 8.6182 27.5371 8.52117 27.6234 8.45572C27.7098 8.39039 27.8186 8.36201 27.9259 8.37683C28.0332 8.39165 28.1302 8.44845 28.1957 8.53475C28.261 8.62114 28.2894 8.72993 28.2746 8.83723C28.2598 8.94452 28.203 9.04155 28.1167 9.107C28.0465 9.16158 27.9603 9.1913 27.8714 9.19148C27.8079 9.19169 27.7453 9.17701 27.6885 9.14861C27.6317 9.12022 27.5823 9.0789 27.5444 9.02798ZM6.50459 8.3004C6.46427 8.26483 6.43137 8.22166 6.40776 8.17335C6.38415 8.12505 6.37031 8.07256 6.36702 8.0189C6.36372 7.96523 6.37105 7.91145 6.38858 7.86062C6.40611 7.80979 6.43349 7.76292 6.46916 7.72269C6.50473 7.68238 6.5479 7.64947 6.59621 7.62587C6.64451 7.60226 6.697 7.58841 6.75066 7.58512C6.80433 7.58183 6.85811 7.58916 6.90894 7.60669C6.95977 7.62422 7.00664 7.6516 7.04686 7.68727C7.08718 7.72284 7.12009 7.76601 7.14369 7.81431C7.1673 7.86262 7.18115 7.91511 7.18444 7.96877C7.18773 8.02244 7.1804 8.07622 7.16287 8.12705C7.14534 8.17787 7.11796 8.22474 7.08229 8.26497C7.0435 8.30834 6.99607 8.34311 6.94303 8.36705C6.89 8.39098 6.83255 8.40355 6.77436 8.40395C6.6735 8.39995 6.57756 8.35925 6.50459 8.2895V8.3004ZM26.1247 7.44202C26.0463 7.3672 26.0008 7.26432 25.9983 7.15599C25.9957 7.04766 26.0363 6.94275 26.1111 6.86431C26.1877 6.78777 26.2916 6.74477 26.3999 6.74477C26.5082 6.74477 26.6121 6.78777 26.6888 6.86431C26.7671 6.93913 26.8126 7.04202 26.8152 7.15035C26.8177 7.25868 26.7772 7.36359 26.7024 7.44202C26.664 7.48196 26.6178 7.51367 26.5668 7.53521C26.5157 7.55676 26.4608 7.5677 26.4054 7.56737C26.3523 7.56423 26.3004 7.55057 26.2527 7.52718C26.205 7.50379 26.1624 7.47113 26.1274 7.43112L26.1247 7.44202ZM8.04149 6.71989C7.97288 6.63604 7.94037 6.52837 7.9511 6.42056C7.96183 6.31274 8.01492 6.2136 8.09872 6.14491C8.13992 6.11044 8.18755 6.08448 8.23885 6.06855C8.29016 6.05262 8.34411 6.04703 8.39759 6.05209C8.45107 6.05716 8.50301 6.0728 8.55041 6.09808C8.5978 6.12337 8.63971 6.15781 8.6737 6.19941C8.74278 6.28337 8.77583 6.39126 8.76562 6.4995C8.7554 6.60775 8.70276 6.70756 8.6192 6.77711C8.5419 6.83874 8.44554 6.87151 8.3467 6.86977C8.28808 6.86797 8.23053 6.85367 8.17789 6.82783C8.12525 6.80198 8.07875 6.76518 8.04149 6.71989ZM24.4815 6.09041C24.3923 6.02867 24.331 5.93419 24.3111 5.82752C24.2912 5.72086 24.3143 5.61065 24.3752 5.52088C24.437 5.43166 24.5315 5.37043 24.6381 5.35052C24.7448 5.33062 24.855 5.35365 24.9448 5.41461C24.9889 5.4449 25.0267 5.48363 25.0558 5.52857C25.0849 5.57351 25.1049 5.62377 25.1145 5.67646C25.1241 5.72914 25.1232 5.78321 25.1119 5.83555C25.1005 5.88788 25.0789 5.93746 25.0483 5.98141C25.0109 6.03581 24.9609 6.08033 24.9025 6.11118C24.8441 6.14203 24.7791 6.15828 24.7131 6.15854C24.6289 6.16133 24.5459 6.13749 24.4761 6.09041H24.4815ZM9.79913 5.41461C9.74954 5.32213 9.73715 5.2142 9.76451 5.11289C9.79186 5.01159 9.85688 4.92456 9.94628 4.8696C9.99254 4.84226 10.0438 4.82437 10.097 4.81697C10.1502 4.80956 10.2044 4.8128 10.2563 4.82649C10.3083 4.84018 10.357 4.86404 10.3997 4.8967C10.4424 4.92936 10.4781 4.97017 10.5049 5.01675C10.5559 5.10894 10.569 5.21732 10.5415 5.31901C10.5141 5.4207 10.4482 5.50775 10.3578 5.56176C10.2962 5.59924 10.2255 5.61904 10.1534 5.61898C10.0816 5.61903 10.011 5.60016 9.94886 5.56429C9.88667 5.52841 9.83503 5.47678 9.79913 5.41461ZM22.6312 5.03038C22.5825 5.00756 22.5387 4.97535 22.5025 4.93558C22.4662 4.89581 22.4381 4.84927 22.4199 4.79863C22.4017 4.74799 22.3936 4.69425 22.3962 4.6405C22.3988 4.58674 22.412 4.53403 22.435 4.48538C22.4575 4.43639 22.4896 4.39238 22.5293 4.35591C22.5691 4.31945 22.6156 4.29126 22.6664 4.273C22.7171 4.25473 22.771 4.24676 22.8248 4.24953C22.8787 4.25231 22.9314 4.26579 22.98 4.28918C23.0288 4.31195 23.0725 4.3442 23.1087 4.38403C23.1449 4.42386 23.1728 4.47049 23.1908 4.5212C23.2088 4.57191 23.2165 4.6257 23.2136 4.67943C23.2106 4.73316 23.197 4.78576 23.1735 4.83418C23.1414 4.90461 23.0895 4.96423 23.0242 5.00582C22.959 5.04741 22.883 5.06919 22.8056 5.06853C22.7453 5.06958 22.6856 5.05652 22.6312 5.03038ZM11.7475 4.40908C11.7282 4.35881 11.7191 4.30523 11.7206 4.25142C11.7221 4.1976 11.7342 4.14461 11.7562 4.09549C11.7782 4.04637 11.8098 4.00209 11.8489 3.96518C11.8881 3.92827 11.9342 3.89947 11.9846 3.88042C12.035 3.86133 12.0887 3.85247 12.1426 3.85436C12.1965 3.85625 12.2494 3.86885 12.2984 3.89143C12.3474 3.914 12.3913 3.94611 12.4277 3.98586C12.4642 4.02561 12.4923 4.07221 12.5105 4.12295C12.5298 4.17286 12.5391 4.22609 12.5377 4.27958C12.5364 4.33307 12.5245 4.38576 12.5027 4.43464C12.4809 4.48351 12.4497 4.5276 12.4108 4.56437C12.3719 4.60114 12.3262 4.62986 12.2762 4.64888C12.2287 4.66435 12.1788 4.67081 12.129 4.66795C12.0468 4.6682 11.9663 4.64362 11.8983 4.59743C11.8302 4.55125 11.7777 4.4856 11.7475 4.40908ZM20.6392 4.281C20.5364 4.2501 20.4499 4.1797 20.3989 4.08522C20.3478 3.99073 20.3362 3.87986 20.3667 3.77687C20.3976 3.67401 20.468 3.58758 20.5625 3.53651C20.657 3.48544 20.7679 3.47388 20.8709 3.50437C20.9737 3.53527 21.0602 3.60567 21.1112 3.70016C21.1623 3.79464 21.1739 3.90551 21.1434 4.0085C21.1191 4.09391 21.0677 4.1691 20.9969 4.22269C20.9261 4.27628 20.8398 4.30536 20.751 4.30553C20.7127 4.30281 20.6751 4.29455 20.6392 4.281ZM13.8267 3.736C13.8155 3.68356 13.8149 3.62942 13.8248 3.57673C13.8346 3.52403 13.8549 3.47381 13.8842 3.42897C13.9136 3.38413 13.9516 3.34555 13.996 3.31546C14.0404 3.28537 14.0903 3.26437 14.1428 3.25367C14.1964 3.24137 14.2519 3.24009 14.306 3.24989C14.3601 3.2597 14.4117 3.28039 14.4575 3.31071C14.5034 3.34103 14.5426 3.38035 14.5728 3.42629C14.6031 3.47223 14.6236 3.52382 14.6333 3.57795C14.6517 3.68333 14.628 3.79172 14.5674 3.87986C14.5068 3.968 14.414 4.02886 14.309 4.04938C14.2818 4.05205 14.2545 4.05205 14.2273 4.04938C14.1356 4.04795 14.047 4.01574 13.9759 3.95791C13.9047 3.90008 13.855 3.82 13.8349 3.73055L13.8267 3.736ZM18.5464 3.87225C18.4928 3.86617 18.441 3.84955 18.3939 3.82334C18.3468 3.79714 18.3053 3.76187 18.2719 3.71957C18.2384 3.67728 18.2137 3.62878 18.1991 3.57688C18.1845 3.52498 18.1803 3.4707 18.1867 3.41717C18.1931 3.36384 18.21 3.31229 18.2363 3.26548C18.2627 3.21867 18.298 3.17751 18.3403 3.14436C18.3825 3.11121 18.4309 3.08671 18.4827 3.07227C18.5344 3.05783 18.5885 3.05372 18.6418 3.06019C18.695 3.06627 18.7465 3.08282 18.7933 3.10889C18.8401 3.13495 18.8813 3.17002 18.9144 3.21207C18.9476 3.25411 18.9722 3.30231 18.9866 3.35388C19.0011 3.40545 19.0052 3.45938 18.9988 3.51255C18.9868 3.61204 18.939 3.70375 18.8642 3.77048C18.7895 3.8372 18.6929 3.87436 18.5927 3.87497H18.5464V3.87225ZM15.9931 3.40355C15.9886 3.29485 16.0274 3.18881 16.101 3.10864C16.1745 3.02846 16.2768 2.98067 16.3855 2.97572C16.4937 2.97202 16.5991 3.01114 16.6786 3.0846C16.7582 3.15806 16.8056 3.25993 16.8106 3.36812C16.8143 3.47636 16.7752 3.58169 16.7017 3.66127C16.6282 3.74086 16.5264 3.78827 16.4182 3.79322H16.4018C16.2972 3.79119 16.1973 3.74907 16.1227 3.67555C16.0482 3.60204 16.0047 3.50273 16.0013 3.3981L15.9931 3.40355Z" fill="#A07A29"/>
<path d="M24.9339 16.9986L19.1569 17.8924L22.6095 22.6094L17.8925 19.1568L16.9987 24.9339L16.1076 19.1568L11.3906 22.6094L14.8432 17.8924L9.06616 16.9986L14.8432 16.1076L11.3906 11.3906L16.1076 14.8431L16.9987 9.06612L17.8925 14.8431L22.6095 11.3906L19.1569 16.1076L24.9339 16.9986Z" fill="white" fill-opacity="0.51"/>
<path d="M19.0069 17.8952L14.9929 16.1021L20.1377 9.96811L19.0069 17.8952Z" fill="white"/>
<path d="M14.9929 16.1021L19.0069 17.8952L13.8621 24.0319L14.9929 16.1021Z" fill="#CCA656"/>
<path d="M17.2711 6.49098H16.7261V8.8563H17.2711V6.49098Z" fill="#D7BE8A"/>
<path d="M17.2711 25.0947H16.7261V27.46H17.2711V25.0947Z" fill="#D7BE8A"/>
<path d="M27.4818 16.7043H25.1165V17.2493H27.4818V16.7043Z" fill="#D7BE8A"/>
<path d="M8.88094 16.7016H6.51562V17.2466H8.88094V16.7016Z" fill="#D7BE8A"/>
</g>
<defs>
<clipPath id="clip0_44_24715">
<rect width="34" height="34" fill="white"/>
</clipPath>
</defs>
</svg>
