<svg width="9" height="6" viewBox="0 0 9 6" fill="none" xmlns="http://www.w3.org/2000/svg">
<path d="M8.05352 0.585893C7.93773 0.544444 7.8102 0.533549 7.68719 0.554595C7.56417 0.575642 7.45122 0.627678 7.36274 0.704076L6.5433 1.40827L5.09013 0.159457C4.97128 0.0573567 4.81012 0 4.64207 0C4.47402 0 4.31286 0.0573567 4.19401 0.159457L2.74083 1.40827L1.9214 0.704076C1.83277 0.627933 1.71986 0.576082 1.59694 0.555077C1.47403 0.534072 1.34662 0.544857 1.23084 0.586069C1.11505 0.62728 1.01609 0.697067 0.946448 0.786608C0.876809 0.876148 0.839626 0.981422 0.8396 1.08912V3.97179C0.840103 4.33276 1.00719 4.67882 1.3042 4.93407C1.60122 5.18931 2.00392 5.3329 2.42396 5.33333H6.86018C7.28022 5.3329 7.68292 5.18931 7.97993 4.93407C8.27695 4.67882 8.44404 4.33276 8.44454 3.97179V1.08912C8.44457 0.981414 8.40744 0.876117 8.33784 0.786544C8.26824 0.696972 8.16929 0.627145 8.05352 0.585893Z" fill="#8D6002"/>
</svg>
