<svg width="36" height="44" viewBox="0 0 36 44" fill="none" xmlns="http://www.w3.org/2000/svg">
<path d="M11.6086 9.25753C11.6334 9.26726 11.6605 9.26964 11.6867 9.26438C11.7128 9.25911 11.7369 9.24644 11.7557 9.22792C11.7746 9.20941 11.7875 9.18586 11.7929 9.16021C11.7983 9.13456 11.7958 9.10792 11.7859 9.08361C11.5794 8.58326 11.4908 8.04364 11.5267 7.50502C11.5267 6.92977 11.8951 6.07358 11.936 5.49833C11.9571 4.88895 11.8835 4.27996 11.7177 3.69231C11.7177 3.59866 11.554 3.54515 11.4994 3.61204C11.1311 4.10702 10.7764 4.37458 10.4217 4.82943C10.1434 5.23341 9.96829 5.69717 9.91131 6.18151C9.85432 6.66584 9.91708 7.15651 10.0943 7.61204C10.2122 7.97649 10.4083 8.31194 10.6695 8.59578C10.9307 8.87962 11.2509 9.10527 11.6086 9.25753ZM34.5 21.2977C33.6963 19.4875 32.5053 17.8679 31.0077 16.5485C30.9122 16.4682 30.7894 16.5485 30.8303 16.6957C31.2008 17.9675 31.2337 19.3111 30.9256 20.5989C30.6176 21.8867 29.979 23.0759 29.0705 24.0535C28.9613 24.1739 28.784 24.1204 28.8113 23.9599C29.1328 22.4459 29.1303 20.883 28.8039 19.37C28.4775 17.8571 27.8343 16.4271 26.915 15.1706C25.1603 13.0102 23.2598 10.9677 21.2263 9.05686C18.8706 6.63381 17.4603 3.4747 17.2428 0.133779C17.2428 0.105701 17.2338 0.0783355 17.217 0.0555575C17.2003 0.0327795 17.1766 0.0157442 17.1495 0.00686521C17.1223 -0.0020138 17.093 -0.00228688 17.0657 0.00608505C17.0383 0.014457 17.0144 0.0310493 16.9972 0.0535117C14.0642 3.94649 12.7818 9.25753 14.528 13.7258C14.5342 13.7528 14.5316 13.781 14.5207 13.8066C14.5098 13.8322 14.4911 13.8538 14.4672 13.8685C14.4432 13.8831 14.4152 13.8902 14.387 13.8886C14.3588 13.887 14.3318 13.8768 14.3097 13.8595C12.6579 12.034 10.6612 10.5393 8.42996 9.45819C8.40748 9.44958 8.38321 9.44641 8.35921 9.44896C8.33522 9.45151 8.3122 9.45969 8.29212 9.47282C8.27203 9.48595 8.25547 9.50364 8.24385 9.52438C8.23222 9.54512 8.22587 9.56831 8.22533 9.59197C8.5592 11.7201 9.01465 13.8283 9.58954 15.9064C10.1282 17.9805 9.83525 20.1782 8.77101 22.0468C8.7028 22.1538 8.51181 22.1137 8.51181 22.0468C8.73296 20.2352 8.49878 18.3981 7.82971 16.6957C7.11896 14.9057 6.0312 13.2828 4.63745 11.9331C4.61538 11.9158 4.58838 11.9057 4.56017 11.9041C4.53197 11.9025 4.50395 11.9095 4.47999 11.9242C4.45604 11.9389 4.43732 11.9605 4.42643 11.986C4.41553 12.0116 4.413 12.0399 4.41918 12.0669C4.64692 13.0364 4.66876 14.0415 4.48335 15.0196C4.29794 15.9978 3.90925 16.928 3.34145 17.7525C1.03043 21.0457 -0.136823 24.9816 0.0127785 28.9766C0.0127785 36.6421 5.01943 42.0602 11.9906 44C11.1975 43.4321 10.5753 42.6649 10.1898 41.7793C9.82957 40.9315 9.64411 40.0221 9.64411 39.1037C9.64411 38.1852 9.82957 37.2759 10.1898 36.4281C11.554 33.5251 14.4734 32.7893 16.5607 30.2074C17.9249 28.4682 17.843 26.9164 17.8294 24.3478C20.3637 26.7322 21.8346 30.0019 21.922 33.4448C21.953 34.4989 21.7294 35.5453 21.2695 36.4985C20.8095 37.4517 20.1263 38.2848 19.2754 38.9298C22.9997 38.7425 24.1457 36.3478 24.7323 34.0067C25.5586 35.1062 26.0903 36.3915 26.2785 37.7448C26.4668 39.0981 26.3057 40.4761 25.81 41.7525C25.4007 42.647 24.7556 43.4182 23.941 43.9866C30.9531 42.0602 35.987 36.6288 35.987 28.9498C36.0911 26.3001 35.5681 23.6626 34.4591 21.2441L34.5 21.2977Z" fill="#EB5757"/>
</svg>
