<svg width="30" height="53" viewBox="0 0 30 53" fill="none" xmlns="http://www.w3.org/2000/svg">
<path d="M28.4367 14.0521C29.0214 14.2129 29.5585 14.5206 30 14.9479C30 14.9479 29.7378 13.3333 28.5275 13.1562C27.3172 12.9792 26.6616 13.7813 25.8346 13.8281C25.0076 13.875 23.4897 13.7344 23.4897 13.7344C23.7873 12.3418 23.8808 10.9109 23.767 9.48958V9.30208C23.767 9.15625 23.767 9.02084 23.7216 8.88021C23.7216 8.88021 23.7216 8.84375 23.7216 8.82292C23.7216 8.6875 23.6813 8.55208 23.651 8.42188C23.5375 7.9591 23.368 7.51289 23.1467 7.09375C22.2693 5.42708 20.6001 3.69791 19.294 3.25C20.5742 3.67646 21.6948 4.50263 22.5012 5.61458C22.8346 6.07084 23.133 6.5532 23.3938 7.05729L23.4947 7.24479C23.8028 7.3694 24.089 7.54534 24.3419 7.76563C24.2057 6.23959 22.9047 6.27083 22.6576 5.56771C22.4105 4.86458 24.0494 5.34375 24.0494 5.34375C23.7335 4.91386 23.3696 4.52401 22.9652 4.18229C22.355 3.66146 21.7499 4.04688 21.0993 3.59896C20.4488 3.15104 20.9228 2.88021 22.4004 2.55729C21.6591 2.11979 19.879 2.09375 18.5779 2.55729C18.8805 1.76042 20.0101 1.0625 20.0101 1.0625C19.4115 1.07841 18.822 1.21648 18.2753 1.46875C17.4685 1.85937 16.5355 2.61458 15.6026 2.59375H15.3353C14.594 3.89062 13.6712 3.44271 12.9198 3.46875C12.8734 3.46591 12.8269 3.47379 12.7838 3.49183C12.7407 3.50987 12.7021 3.53762 12.6707 3.57304C12.6393 3.60847 12.6159 3.65069 12.6023 3.69662C12.5887 3.74255 12.5852 3.79103 12.592 3.83854C12.0364 3.90925 11.4942 4.0655 10.9833 4.30208C12.1533 3.19791 12.8795 3.16145 14.1301 3.16145C15.3807 3.16145 15.1387 1.85417 16.354 1.21354C15.411 1.47917 13.9435 2.35417 12.7736 2.1875C11.9369 2.0866 11.0939 2.05177 10.2521 2.08333C10.2521 2.08333 12.9248 1.75 13.7065 0C12.7635 0.84375 11.9818 0.73958 10.711 0.874996C9.44023 1.01041 7.29196 2.1875 6.51032 2.92708C6.1059 3.24801 5.755 3.63506 5.47149 4.07291C5.34037 4.30208 5.53704 4.87499 5.23951 5.14583C4.70287 5.55848 4.0574 5.79282 3.38878 5.81771C2.72817 5.84375 1.82549 6.05208 1.62882 5.61458C1.43215 5.17708 1.56326 4.875 2.08772 4.54167C2.61218 4.20833 4.88651 3.83333 6.02116 1.21354C5.35163 2.05762 4.5072 2.73574 3.55015 3.19792C2.50014 3.53976 1.56379 4.17846 0.847171 5.04166C0.181513 5.94271 0.161343 7.27083 0.998459 7.64583C1.18249 8.00232 1.42088 8.3259 1.70446 8.60416C1.71095 8.60997 1.71906 8.6135 1.72762 8.61422C1.73618 8.61495 1.74474 8.61283 1.75205 8.60818C1.75936 8.60353 1.76505 8.59659 1.76828 8.58838C1.77151 8.58016 1.77212 8.5711 1.77002 8.5625C1.7095 8.36979 1.60865 8.04166 1.54309 7.75C1.65391 7.75774 1.7651 7.75774 1.87592 7.75C2.03579 8.12493 2.25954 8.46717 2.53654 8.76041C2.54051 8.7676 2.54582 8.7739 2.55215 8.77896C2.55848 8.78403 2.56571 8.78775 2.57344 8.78993C2.58117 8.79211 2.58923 8.79269 2.59718 8.79165C2.60512 8.7906 2.61279 8.78795 2.61975 8.78385C2.6267 8.77975 2.6328 8.77427 2.63771 8.76773C2.64261 8.76119 2.64622 8.75371 2.64833 8.74573C2.65043 8.73775 2.651 8.72943 2.64999 8.72122C2.64898 8.71302 2.64641 8.7051 2.64244 8.69792C2.53918 8.35634 2.45665 8.00844 2.39534 7.65625C2.67916 7.61308 2.96574 7.59219 3.25262 7.59375C3.85777 7.59375 5.26977 7.1875 5.69842 7.35416C6.12706 7.52083 6.8381 8.07292 7.75086 7.76563C7.49887 7.93919 7.27577 8.15377 7.09024 8.40104C6.79651 8.69545 6.46575 8.94771 6.10689 9.15104C5.66296 9.43465 5.19549 9.67692 4.71001 9.875C4.42257 9.97916 4.06957 10.0885 3.70144 10.1979C3.49972 9.96354 3.28288 9.70833 3.22237 9.73958C3.16185 9.77083 3.22237 10.026 3.34844 10.2969C3.21732 10.3333 3.09629 10.3698 2.97526 10.3958C2.75338 10.1406 2.5214 9.84375 2.47098 9.875C2.42055 9.90625 2.47098 10.1979 2.60714 10.4896L2.4155 10.5365L2.64748 10.5833C2.81394 10.6155 2.98251 10.6347 3.15177 10.6406H3.19715C3.30796 10.6484 3.41917 10.6484 3.52998 10.6406C3.72975 10.6278 3.9285 10.6017 4.12504 10.5625H4.16034C4.50298 10.4864 4.84001 10.3854 5.16891 10.2604C4.87328 10.4601 4.55031 10.6129 4.21077 10.7135L4.0494 10.7552C3.92771 10.7925 3.80268 10.8169 3.67622 10.8281C3.58463 10.8448 3.49186 10.8535 3.39887 10.8542H3.15177C3.02481 10.8509 2.89832 10.8369 2.77355 10.8125C2.57716 10.7813 2.38447 10.729 2.19866 10.6562C2.19866 10.8229 2.47602 11.2135 2.70295 11.5417C2.99544 11.9792 3.03073 12.5833 3.84264 11.875C4.61851 11.1626 5.54371 10.6456 6.54561 10.3646C7.38777 10.1927 8.59302 9.76041 9.11748 10.0625C9.40713 10.2287 9.66221 10.4523 9.86815 10.7204C10.0741 10.9885 10.2269 11.2959 10.3177 11.625C10.4185 12.2292 11.1346 11.0521 11.6843 10.349C12.1105 9.84825 12.4732 9.29342 12.7635 8.69792C12.4249 8.05082 11.8948 7.53252 11.2506 7.21875C12.3049 7.14699 13.3619 7.30674 14.352 7.6875C15.0983 8.0625 14.9975 7.19792 14.468 6.04688C14.2157 5.50127 13.8745 5.00447 13.4594 4.57812C14.6142 5.20312 15.5017 8.125 14.7655 8.22396C14.2259 8.30208 13.3484 7.51042 11.9415 7.54167C12.476 8.0625 13.0257 8.39583 13.0761 8.63021C13.0857 8.74349 13.0592 8.8569 13.0005 8.95313C13.647 8.71698 14.3334 8.61951 15.0176 8.66667C16.1926 8.84896 17.7559 9.65104 17.8416 10.6406C17.9274 11.6302 17.5391 12.276 16.712 12.1719C15.885 12.0677 14.8916 11.0104 13.7166 11.1302C13.0479 11.1989 12.4155 11.4772 11.9044 11.9278C11.3933 12.3784 11.0279 12.9797 10.8573 13.651C11.158 13.1464 11.5942 12.7429 12.1129 12.4896C12.0625 12.5573 11.0035 14.0521 11.8104 15.0937C12.0689 14.4293 12.3739 13.7853 12.7231 13.1667C12.7231 13.1667 12.6777 14.6458 13.762 15.0937C13.7166 14.1094 13.6762 13.0781 14.1099 12.8542H14.1654C14.4121 13.1165 14.5742 13.4512 14.6293 13.8125C14.6949 14.1927 14.9924 13.6198 15.0277 13.0677C15.294 13.2202 15.5025 13.461 15.6197 13.7513C15.7369 14.0415 15.7557 14.364 15.6732 14.6667C15.3253 16.0104 12.5466 16.9063 9.33432 17.401C6.12201 17.8958 1.96669 19.0573 2.00199 23.1302C2.00124 24.4154 2.43461 25.6605 3.22741 26.651C3.13159 26.7083 3.03578 26.776 2.93493 26.8333C2.25414 27.2344 1.33633 27.3073 0.716059 27.7708C0.47214 27.9985 0.281418 28.2804 0.158255 28.5953C0.0350918 28.9101 -0.0173046 29.2497 0.00501308 29.5885C-0.0403727 31.5156 1.44727 31.5573 1.44727 31.5573C0.761444 30.7083 1.28591 29.474 1.28591 29.474C1.28591 29.474 2.21883 30.9479 2.91475 30.5885C2.41046 29.9167 2.65252 28.5729 2.65252 28.5729C3.1791 28.9693 3.76515 29.2737 4.38727 29.474C4.34186 29.1787 4.23665 28.8966 4.0785 28.6462C3.92034 28.3959 3.71282 28.1827 3.46947 28.0208C3.81238 27.9844 4.23598 27.9583 4.65454 27.9375C5.01908 28.1928 5.40974 28.4059 5.81944 28.5729L5.78414 28.5104L5.81944 28.5729C6.60613 29.0417 7.6147 29.6927 8.84516 30.3021C8.71405 30.5365 8.58293 30.7604 8.46191 30.9844C7.49367 31.2448 6.04637 32.1042 6.16236 33.8958C6.49073 33.5935 6.89103 33.3868 7.32222 33.2969C7.17598 33.6458 7.0499 33.9948 6.93896 34.3385C6.28338 34.7344 5.4261 35.6979 5.66311 37.9844C5.81581 37.5315 6.07791 37.1263 6.42459 36.8073C6.38929 37.1823 6.36912 37.5729 6.36912 37.9792C5.95474 39.0595 5.87544 40.2461 6.14218 41.375C6.29851 41.026 6.43467 40.7292 6.5557 40.4792C6.5557 40.4792 6.5557 40.5156 6.5557 40.5365C6.62887 41.0271 6.75575 41.5076 6.93392 41.9688C6.92367 42.5062 7.03396 43.0388 7.25618 43.5249C7.47839 44.0111 7.80648 44.4375 8.2148 44.7708C8.1772 44.5735 8.15695 44.373 8.15429 44.1719C8.37618 44.474 8.6132 44.7656 8.8603 45.0469C8.91572 45.7412 8.89881 46.4396 8.80986 47.1302C8.67471 47.6496 8.47109 48.1473 8.20472 48.6094C8.4215 48.586 8.63166 48.5186 8.82314 48.4111C9.01462 48.3036 9.18364 48.158 9.32048 47.9828C9.45731 47.8076 9.55927 47.6062 9.6205 47.3902C9.68172 47.1741 9.70101 46.9477 9.67724 46.724C9.93947 48.2865 8.11395 50.9375 9.89408 52.151C9.89408 50.1302 11.4574 48.1615 11.4574 48.1615C11.4574 48.1615 10.5446 52.0156 13.1064 53C12.0978 50.5781 12.8895 49.151 13.7115 49.3542C14.5335 49.5573 14.0292 52.0208 15.3454 52.2917C16.6616 52.5625 16.1422 50.5417 17.3172 50.9896C18.118 51.3415 18.8405 51.8591 19.4402 52.5104C19.1537 51.6773 18.7764 50.8805 18.3157 50.1354C17.8114 49.4635 19.2688 48.5208 18.4014 47.5312C17.534 46.5417 15.4917 47.7135 14.8008 47.3958C14.1099 47.0781 15.9254 45.3802 17.1861 45.7396C15.7942 44.8906 13.409 45.2188 12.8492 46.1875C13.409 44.4844 14.8663 42.8281 16.0161 43.1406C14.9722 42.3333 13.3232 42.8281 12.5416 43.8594C11.7599 44.8906 11.296 44.7031 11.296 44.7031C11.296 44.7031 12.3046 44.0365 12.239 43.1875C11.5665 43.4951 10.8258 43.6085 10.0958 43.5156C10.4781 44.2356 10.9292 44.9143 11.4422 45.5417C11.8275 46.042 12.2674 46.4947 12.7534 46.8906C13.2577 47.276 13.762 47.5938 14.2662 47.9323C14.5285 48.099 14.7705 48.2865 15.0277 48.4531C15.2875 48.6343 15.5291 48.842 15.7488 49.0729C15.7834 49.1138 15.8091 49.1617 15.8245 49.2135C15.8337 49.2405 15.8337 49.2699 15.8245 49.2969C15.8144 49.3243 15.7946 49.3466 15.769 49.3594C15.7394 49.3681 15.7079 49.3681 15.6782 49.3594C15.5944 49.3574 15.5112 49.3434 15.4312 49.3177C15.2808 49.2752 15.1327 49.2248 14.9874 49.1667C14.6999 49.0469 14.4175 48.9271 14.1452 48.7865C14.4377 48.875 14.7302 48.974 15.0227 49.0573C15.1491 49.102 15.279 49.1351 15.411 49.1563C15.5169 49.1563 15.6177 49.1562 15.4816 49.0417L15.2042 48.8438L15.1588 48.8125L14.6899 48.5L13.4342 47.6979C12.8161 47.2801 12.2519 46.7831 11.7549 46.2188C10.242 44.5365 8.84516 42.0208 8.63336 39.6302C8.40643 37.099 9.7781 34.0833 12.0575 31.7917C11.2984 31.548 10.5755 31.1975 9.90921 30.75L10.2168 30.8802C11.9251 31.576 13.7461 31.9295 15.5824 31.9219C15.8542 32.1492 16.068 32.4418 16.2051 32.7741C16.3422 33.1063 16.3985 33.4682 16.3691 33.8281C16.2733 34.8125 16.0111 35.349 14.1452 35.4375C14.468 37 16.2531 36.151 16.2531 36.151C16.2531 36.151 14.7403 37.1927 13.8628 37.0521C14.7705 38.4427 16.3843 37.4583 16.3843 37.4583C16.3843 37.4583 14.7756 38.4427 15.4614 38.5312C16.1472 38.6198 17.4786 37.8802 17.9274 36.7396C18.3056 35.8021 18.6535 32.9479 17.2315 31.8125C21.8759 31.1927 26.359 28.0104 26.6414 24C26.9491 19.7396 20.2269 20.7812 20.2269 20.7812L20.5244 20.8437L20.2572 20.7917C21.5431 21.0938 22.7786 21.7448 22.3298 23.5365C22.1337 24.0253 21.7907 24.4361 21.3515 24.7083C20.1916 25.4219 18.3258 25.6927 17.3777 25.75H16.9844C18.709 25.2292 22.0575 24.9844 21.9718 22.625C21.9163 20.9583 19.7327 20.8906 18.5577 21.224C16.1599 21.9894 13.9905 23.3732 12.2541 25.2448C10.8838 24.8605 9.57791 24.2634 8.38122 23.474C7.05685 24.0538 5.99889 25.1372 5.4261 26.5C5.4261 26.4062 5.4261 26.3073 5.4614 26.2083C5.4614 26.0885 5.50678 25.9688 5.53704 25.8542C5.62888 25.5212 5.77007 25.205 5.9556 24.9167C6.04794 24.7747 6.14901 24.639 6.25817 24.5104C6.50298 24.2202 6.78064 23.9614 7.0852 23.7396C9.88904 21.6823 12.8442 21.1354 16.0565 20.6146C19.2688 20.0938 21.6944 18.6458 22.7383 15.6823C22.7367 16.0977 22.691 16.5116 22.6021 16.9167L25.5068 15.526C25.5068 15.526 25.3858 16.3542 25.648 16.625C26.0363 15.6406 26.3843 15.0625 27.0751 15.1458C27.766 15.2292 28.0333 16.2656 27.9425 17.2292C29.1326 15.9427 28.3964 15.1771 28.3359 15.1458C28.3913 15.1458 29.2032 15.5677 29.289 16.2656C29.6974 15.3958 29.0015 14.276 28.4367 14.0521ZM1.42711 7.20313C1.37842 7.18859 1.33115 7.16941 1.28591 7.14583C1.15955 7.10945 1.04886 7.0299 0.971927 6.92017C0.894991 6.81044 0.856348 6.67701 0.862307 6.54167C0.922821 5.95833 1.11949 6.21875 1.2506 6.63021C1.33573 6.86612 1.46804 7.08086 1.63891 7.26042C1.56708 7.24651 1.49631 7.22736 1.42711 7.20313ZM10.938 5.52083C11.0842 5.52083 11.1901 5.72396 10.8674 6.125C10.6997 6.35331 10.4548 6.50773 10.1815 6.55729C10.1815 6.55729 10.6253 5.5625 10.938 5.52083ZM10.1866 6.76562C10.1923 6.80909 10.1813 6.85317 10.1558 6.88827C10.1303 6.92337 10.0924 6.94667 10.0504 6.95312C10.0295 6.9568 10.008 6.95605 9.98739 6.95089C9.96675 6.94573 9.94735 6.93629 9.93037 6.92313C9.91338 6.90997 9.89917 6.89337 9.88859 6.87435C9.87802 6.85533 9.87131 6.83429 9.86887 6.8125C9.8653 6.79088 9.86604 6.76874 9.87103 6.74742C9.87603 6.7261 9.88517 6.70606 9.89791 6.68852C9.91065 6.67097 9.92673 6.65629 9.94514 6.64537C9.96356 6.63445 9.98393 6.62752 10.005 6.625C10.0471 6.61904 10.0898 6.63046 10.1238 6.65679C10.1578 6.68312 10.1803 6.72222 10.1866 6.76562ZM9.80331 5.20312C9.88904 5.08333 10.121 5.16667 10.1664 5.68229C10.2029 5.96833 10.1346 6.25814 9.97477 6.49479C9.97477 6.49479 9.61168 5.48438 9.80331 5.22396V5.20312ZM9.38475 5.90104C9.60361 6.0762 9.75256 6.32827 9.80331 6.60938C9.80331 6.60938 8.84012 6.15104 8.79474 5.82813C8.77961 5.69792 8.99645 5.58854 9.38475 5.92187V5.90104ZM7.30709 5.55729C6.95913 5.78125 6.90366 6.03125 6.67673 6.03646C6.21783 6.03646 6.21783 5.64584 6.61117 5.29167C7.00452 4.9375 8.29045 5.1302 8.29045 5.1302C7.94815 5.24291 7.61849 5.39306 7.30709 5.57812V5.55729ZM8.51234 7C8.39635 6.91146 8.47199 6.67188 8.97628 6.625C9.25168 6.58656 9.53096 6.65727 9.75793 6.82291C9.75793 6.82291 8.76448 7.21875 8.51234 7.02083V7ZM9.11748 8.04167C8.97124 8.04167 8.8603 7.83333 9.18304 7.43229C9.35513 7.20663 9.60058 7.05306 9.87391 7C9.87391 7 9.45535 8.01562 9.11748 8.0625V8.04167ZM10.2521 8.33333C10.1614 8.45313 9.92938 8.375 9.88904 7.85417C9.85186 7.57047 9.91839 7.28264 10.0756 7.04688C10.0756 7.04688 10.4639 8.09375 10.2521 8.38021V8.33333ZM11.2607 7.70834C11.2607 7.85938 11.064 7.97396 10.6757 7.64062C10.4551 7.46486 10.3058 7.21044 10.2572 6.92709C10.2572 6.92709 11.2153 7.40625 11.2557 7.72917L11.2607 7.70834ZM11.0842 6.91145C10.808 6.94916 10.5279 6.88057 10.2975 6.71875C10.2975 6.71875 11.3061 6.33854 11.5481 6.53646C11.6591 6.65104 11.5784 6.89062 11.0792 6.93229L11.0842 6.91145ZM16.6818 49.1615C16.8155 49.1615 16.9438 49.2163 17.0384 49.314C17.1329 49.4117 17.1861 49.5442 17.1861 49.6823C17.1861 49.8204 17.1329 49.9529 17.0384 50.0506C16.9438 50.1483 16.8155 50.2031 16.6818 50.2031C16.548 50.2031 16.4198 50.1483 16.3252 50.0506C16.2306 49.9529 16.1775 49.8204 16.1775 49.6823C16.1827 49.5487 16.2374 49.4223 16.3303 49.3292C16.4233 49.2361 16.5473 49.1835 16.6767 49.1823L16.6818 49.1615ZM10.9682 44.25C10.9196 44.25 10.8729 44.2304 10.838 44.1954C10.8032 44.1604 10.7829 44.1127 10.7816 44.0625C10.7816 44.0114 10.8013 43.9624 10.8363 43.9262C10.8713 43.8901 10.9187 43.8698 10.9682 43.8698C11.0177 43.8698 11.0652 43.8901 11.1001 43.9262C11.1351 43.9624 11.1548 44.0114 11.1548 44.0625C11.1535 44.1127 11.1333 44.1604 11.0984 44.1954C11.0635 44.2304 11.0168 44.25 10.9682 44.25ZM12.1785 45.6719C12.1344 45.6726 12.0906 45.6642 12.0496 45.6472C12.0086 45.6303 11.9713 45.605 11.9399 45.5731C11.9084 45.5411 11.8835 45.5029 11.8664 45.4609C11.8494 45.4188 11.8406 45.3737 11.8406 45.3281C11.8406 45.2825 11.8494 45.2374 11.8664 45.1954C11.8835 45.1533 11.9084 45.1152 11.9399 45.0832C11.9713 45.0512 12.0086 45.026 12.0496 45.009C12.0906 44.9921 12.1344 44.9837 12.1785 44.9844C12.2668 44.9844 12.3514 45.0206 12.4138 45.0851C12.4763 45.1495 12.5113 45.237 12.5113 45.3281C12.5113 45.3737 12.5026 45.4188 12.4855 45.4609C12.4685 45.5029 12.4435 45.5411 12.4121 45.5731C12.3806 45.605 12.3433 45.6303 12.3024 45.6472C12.2614 45.6642 12.2176 45.6726 12.1735 45.6719H12.1785ZM13.7922 46.9219C13.7039 46.9219 13.6193 46.8857 13.5569 46.8212C13.4945 46.7567 13.4594 46.6693 13.4594 46.5781C13.4587 46.5325 13.4668 46.4873 13.4833 46.445C13.4997 46.4027 13.5241 46.3642 13.5551 46.3317C13.586 46.2992 13.623 46.2734 13.6637 46.2558C13.7044 46.2382 13.7481 46.2292 13.7922 46.2292C13.881 46.2305 13.9656 46.2679 14.0279 46.3332C14.0902 46.3985 14.1251 46.4865 14.125 46.5781C14.1237 46.6689 14.0883 46.7555 14.0261 46.8197C13.964 46.8839 13.8801 46.9205 13.7922 46.9219ZM9.58646 45.8802C9.53698 45.8802 9.48952 45.8599 9.45453 45.8238C9.41954 45.7876 9.39988 45.7386 9.39988 45.6875C9.3975 45.6685 9.3975 45.6492 9.39988 45.6302C9.41312 45.5926 9.43707 45.5601 9.46858 45.5368C9.50008 45.5136 9.53767 45.5007 9.57638 45.5C9.62501 45.5 9.67171 45.5196 9.70656 45.5546C9.74141 45.5896 9.76165 45.6373 9.76297 45.6875C9.76341 45.7257 9.75253 45.7631 9.7318 45.7948C9.71107 45.8264 9.68148 45.8508 9.64698 45.8646C9.62787 45.8735 9.60737 45.8788 9.58646 45.8802ZM12.5063 48.8854C12.4622 48.8854 12.4185 48.8764 12.3777 48.8588C12.337 48.8412 12.3001 48.8154 12.2691 48.7829C12.2382 48.7504 12.2138 48.7119 12.1973 48.6696C12.1809 48.6273 12.1728 48.582 12.1735 48.5365C12.1735 48.4453 12.2085 48.3579 12.2709 48.2934C12.3334 48.2289 12.418 48.1927 12.5063 48.1927C12.5946 48.1927 12.6792 48.2289 12.7416 48.2934C12.8041 48.3579 12.8391 48.4453 12.8391 48.5365C12.8365 48.6258 12.8003 48.7106 12.7381 48.7728C12.676 48.8351 12.5928 48.8698 12.5063 48.8698V48.8854ZM10.6303 47.2708C10.5864 47.2715 10.5429 47.2631 10.5022 47.2461C10.4615 47.2291 10.4245 47.2038 10.3935 47.1717C10.3624 47.1397 10.3379 47.1015 10.3215 47.0595C10.305 47.0174 10.2968 46.9724 10.2975 46.9271C10.2972 46.8595 10.3161 46.7933 10.352 46.7368C10.3879 46.6803 10.4391 46.636 10.4992 46.6094C10.5411 46.5927 10.5855 46.5839 10.6303 46.5833C10.7186 46.5833 10.8033 46.6196 10.8657 46.684C10.9281 46.7485 10.9632 46.8359 10.9632 46.9271C10.966 46.9408 10.966 46.955 10.9632 46.9688C10.9509 47.0501 10.9104 47.1241 10.8491 47.1769C10.7878 47.2296 10.7101 47.2575 10.6303 47.2552V47.2708ZM11.412 27.026C11.7549 27.1771 10.9077 29.2813 10.5497 29.1094C10.1916 28.9375 11.0691 26.8594 11.412 27.0104V27.026ZM13.9788 27.9219C14.3268 28.0052 13.8578 30.2292 13.4745 30.1302C13.0913 30.0312 13.6258 27.8177 13.9939 27.9063L13.9788 27.9219ZM16.6414 30.4896C16.3338 30.4896 16.2431 29.4479 16.3187 28.776C16.354 28.4583 16.4246 28.2187 16.5255 28.2187C16.6263 28.2187 16.6767 28.349 16.7373 28.5573C16.9238 29.1667 16.9793 30.4479 16.6414 30.474V30.4896ZM15.4312 29.25C15.3858 29.8385 15.2294 30.4479 15.0126 30.4219C14.7958 30.3958 14.7957 30.0313 14.821 29.599C14.8563 28.9427 15.063 28.1354 15.2698 28.1667C15.4765 28.1979 15.4765 28.6927 15.4312 29.2135V29.25ZM18.3005 30.2031C17.9425 30.2969 17.4786 28.5417 17.6298 28.1198C17.6354 28.0988 17.6455 28.0794 17.6595 28.0631C17.6735 28.0468 17.691 28.0342 17.7105 28.026C17.7231 28.0196 17.7369 28.0163 17.7509 28.0163C17.7649 28.0163 17.7787 28.0196 17.7912 28.026C18.1442 28.2031 18.6636 30.0781 18.3005 30.1875V30.2031ZM19.7831 29.6823C19.3948 29.8385 18.6334 27.7083 18.9662 27.5729C19.299 27.4375 20.1664 29.5052 19.7831 29.6667V29.6823ZM21.2103 28.9896C20.8421 29.1927 19.8437 27.1667 20.1513 26.9948C20.4589 26.8229 21.5582 28.7604 21.2103 28.974V28.9896ZM22.5618 28.0885C22.2138 28.3542 20.9531 26.4844 21.2254 26.276C21.4977 26.0677 22.9047 27.7917 22.5668 28.0729L22.5618 28.0885ZM24.7605 25.4844C24.6546 25.6979 24.115 25.4844 23.6409 25.2188C23.5098 25.1406 23.3838 25.0521 23.2678 24.9688C22.9652 24.75 22.7635 24.5365 22.8038 24.4479C22.8442 24.3594 23.2678 24.4479 23.6964 24.6094L23.9082 24.7031C24.4125 24.901 24.8714 25.25 24.7605 25.4635V25.4844ZM24.2562 23.8542C23.7015 23.7344 23.1518 23.5 23.177 23.3594C23.2022 23.2187 23.7317 23.1927 24.2663 23.2552C24.8008 23.3177 25.3858 23.4844 25.3505 23.7448C25.3152 24.0052 24.7655 23.9479 24.241 23.8333L24.2562 23.8542ZM25.3706 21.9062C25.411 22.276 24.2057 22.4271 23.5703 22.3698C23.3535 22.3698 23.1972 22.3021 23.1921 22.224C23.1871 22.1458 23.1921 22.151 23.2678 22.1094C23.6258 21.7969 25.2849 21.4531 25.3555 21.8854L25.3706 21.9062ZM22.5265 25.5C23.0862 25.8021 24.0393 26.6667 23.7922 26.9375C23.5451 27.2083 22.5012 26.224 22.2088 25.6979C22.1382 25.5677 22.1079 25.4688 22.1533 25.4219C22.1987 25.375 22.3298 25.3802 22.5113 25.4792L22.5265 25.5ZM19.0368 22.1146C19.3584 22.2241 19.6626 22.382 19.9395 22.5833C20.2185 22.7856 20.4652 23.0316 20.6707 23.3125C20.8371 23.5417 20.9077 23.7187 20.8674 23.75C20.827 23.7812 20.3631 23.2292 19.7731 22.8281C19.183 22.4271 18.5527 22.1458 18.5729 22.0573C18.593 21.9687 18.7695 22.026 19.0368 22.1146ZM16.7927 23.0156C17.1754 23.088 17.5458 23.2179 17.8921 23.401C18.2404 23.5796 18.5629 23.8075 18.8502 24.0781C19.0771 24.3073 19.1982 24.4896 19.1629 24.5208C19.1276 24.5521 18.4922 24 17.766 23.6615C17.0398 23.3229 16.2531 23.1042 16.2531 23.0104C16.2531 22.9167 16.4851 22.9635 16.7927 23.0156ZM14.9521 24.0573C15.227 24.0738 15.4977 24.1353 15.7539 24.2396C16.0094 24.3419 16.2464 24.4881 16.4549 24.6719C16.6263 24.8229 16.707 24.9583 16.6767 24.9948C16.6465 25.0312 16.1725 24.7135 15.6682 24.5156C15.1639 24.3177 14.5991 24.2292 14.5991 24.1354C14.5991 24.0417 14.7302 24.0521 14.9521 24.0573ZM12.6828 27.5156C13.0358 27.6354 12.36 29.8021 11.9768 29.6667C11.5935 29.5312 12.3348 27.3906 12.6828 27.5156ZM10.1613 26.4167C10.4992 26.5885 9.51586 28.6198 9.15278 28.4375C8.78969 28.2552 9.84365 26.2344 10.1714 26.4167H10.1613ZM8.98132 25.7292C9.29398 25.9219 8.16942 27.8802 7.82651 27.6615C7.48359 27.4427 8.67875 25.526 8.99141 25.7292H8.98132ZM7.90215 24.9583C8.16438 25.1667 6.89358 27.0104 6.52545 26.7344C6.15732 26.4583 7.67018 24.75 7.91223 24.9583H7.90215ZM2.85928 24.026C2.77842 23.7335 2.72605 23.4335 2.70295 23.1302C2.68553 22.8658 2.69737 22.6002 2.73825 22.3385C2.81389 21.8802 2.95509 21.6042 2.99039 21.6198C3.02569 21.6354 2.99039 21.9271 2.94501 22.3646C2.92551 22.6124 2.92551 22.8615 2.94501 23.1094C2.97843 23.3901 3.03581 23.6672 3.11646 23.9375C3.20178 24.208 3.30803 24.471 3.43417 24.724C3.55121 24.9397 3.68264 25.1468 3.82751 25.3438C4.08469 25.6927 4.30154 25.8906 4.26624 25.9375C4.23094 25.9844 3.97375 25.8281 3.66109 25.4896C3.48422 25.298 3.32861 25.0866 3.19715 24.8594C3.05989 24.587 2.95006 24.3008 2.86937 24.0052L2.85928 24.026ZM5.15379 23.3073C4.89032 22.9273 4.67824 22.5121 4.52343 22.0729C4.52343 22.0365 4.49821 22 4.48812 21.9687C4.32626 21.4905 4.23283 20.9905 4.21077 20.4844C4.21077 20.0729 4.24607 19.8021 4.29145 19.8073C4.33684 19.8125 4.36206 20.0729 4.42257 20.4635C4.49181 20.9418 4.60321 21.4125 4.75539 21.8698L4.80079 21.9948C4.94935 22.4041 5.12806 22.8011 5.33533 23.1823C5.52191 23.5312 5.66311 23.7552 5.62277 23.7917C5.58243 23.8281 5.42106 23.6406 5.16387 23.3073H5.15379ZM8.11899 21.7448C8.06857 21.7448 7.99796 21.5365 7.8618 21.224C7.70571 20.8451 7.50952 20.4853 7.27683 20.151C7.03995 19.8185 6.76948 19.513 6.46997 19.2396C6.22287 19.0156 6.04133 18.875 6.06654 18.8333C6.09176 18.7917 6.3086 18.8698 6.57083 19.0677C6.92328 19.3133 7.23206 19.6199 7.48359 19.974C7.73314 20.329 7.92243 20.7253 8.04335 21.1458C8.17446 21.5156 8.17446 21.7604 8.12907 21.7656L8.11899 21.7448ZM10.822 20.776C10.7715 20.776 10.6808 20.599 10.5295 20.3281C10.3509 19.9946 10.1451 19.6775 9.91425 19.3802C9.68018 19.0854 9.42205 18.8118 9.1427 18.5625C8.91577 18.3594 8.74935 18.224 8.77456 18.1823C8.79978 18.1406 8.99645 18.2135 9.27885 18.3906C9.6055 18.6113 9.89794 18.8817 10.1462 19.1927C10.3946 19.5058 10.5937 19.8573 10.7362 20.2344C10.8522 20.5625 10.8774 20.7812 10.8321 20.7969L10.822 20.776ZM13.4594 20.224C13.409 20.224 13.3484 20.0365 13.2325 19.7604C13.0912 19.4264 12.9081 19.1129 12.6878 18.8281C12.4648 18.5446 12.2052 18.294 11.9163 18.0833C11.6793 17.9063 11.5028 17.8073 11.5179 17.7604C11.533 17.7135 11.7398 17.7604 12.0222 17.8958C12.365 18.0776 12.6673 18.3313 12.9097 18.6406C13.1461 18.9479 13.3178 19.3026 13.414 19.6823C13.5249 20.0208 13.5149 20.2396 13.4896 20.2448L13.4594 20.224ZM15.8598 19.4062C15.8094 19.4062 15.7841 19.2135 15.7085 18.9479C15.6128 18.6246 15.4626 18.3214 15.2647 18.0521C15.0646 17.7855 14.8184 17.5595 14.5386 17.3854C14.3066 17.2396 14.1301 17.1719 14.1402 17.1198C14.1503 17.0677 14.352 17.0781 14.6445 17.1927C14.8024 17.2577 14.9516 17.3435 15.0882 17.4479C15.2435 17.5709 15.384 17.7125 15.5068 17.8698C15.6255 18.0307 15.7254 18.2055 15.8043 18.3906C15.872 18.5568 15.9161 18.7323 15.9354 18.9115C15.9707 19.2292 15.9153 19.4323 15.8699 19.4271L15.8598 19.4062ZM21.7599 8.92708C21.7599 9.03125 20.822 8.99479 19.9344 9.23958C19.0469 9.48437 18.2299 9.92709 18.1795 9.84896C18.1291 9.77084 18.3358 9.64062 18.6435 9.45312C19.0253 9.22282 19.4359 9.04758 19.8638 8.93229C20.2901 8.81853 20.7298 8.76768 21.1699 8.78125C21.5582 8.83854 21.7751 8.90104 21.77 8.94791L21.7599 8.92708ZM16.1573 7.78125C16.0161 8.09896 15.9304 8.30208 15.885 8.30208C15.8396 8.30208 15.8598 8.05208 15.9657 7.70312C16.092 7.27505 16.2808 6.86935 16.5255 6.5C16.766 6.12947 17.0583 5.79775 17.3928 5.51562C17.6702 5.29167 17.8971 5.18229 17.8971 5.22396C17.8971 5.26562 17.761 5.43229 17.529 5.68229C17.2456 5.98894 16.9859 6.31807 16.7524 6.66667C16.5285 7.0285 16.3329 7.40817 16.1674 7.80208L16.1573 7.78125ZM17.6046 8.30208C17.3626 8.58854 17.2163 8.82291 17.1709 8.77604C17.1256 8.72916 17.2214 8.5 17.4382 8.16666C17.7145 7.76267 18.0556 7.41038 18.4468 7.125C18.8376 6.84116 19.275 6.63293 19.7378 6.51042C20.116 6.41146 20.3782 6.41667 20.3883 6.46354C20.3984 6.51042 20.1513 6.58854 19.8033 6.72396C19.3833 6.88989 18.9838 7.10668 18.6132 7.36979C18.2446 7.63502 17.9092 7.94642 17.6147 8.29687L17.6046 8.30208ZM19.41 17.9479C19.3646 17.9479 19.2385 17.7448 19.0166 17.4271C18.7542 17.0585 18.4455 16.7275 18.0988 16.4427C17.7498 16.1573 17.3668 15.9192 16.9591 15.7344C16.6263 15.5833 16.3893 15.5052 16.3994 15.4531C16.4095 15.401 16.6616 15.4167 17.0348 15.5312C17.4849 15.6767 17.9054 15.9062 18.2753 16.2083C18.649 16.5109 18.9638 16.8838 19.2032 17.3073C19.3999 17.6615 19.4654 17.9219 19.4201 17.9427L19.41 17.9479ZM20.9985 15.0521C20.811 14.8951 20.6139 14.7507 20.4085 14.6198C20.1763 14.4693 19.9336 14.337 19.6823 14.224C19.4286 14.111 19.1674 14.017 18.9006 13.9427C18.6669 13.877 18.4295 13.8266 18.1896 13.7917C17.771 13.7292 17.4786 13.7292 17.4786 13.6771C17.4786 13.625 17.761 13.5625 18.2098 13.5781C18.4626 13.5841 18.7142 13.6155 18.9612 13.6719C19.2455 13.7419 19.5238 13.836 19.7932 13.9531C20.0613 14.0721 20.3179 14.2168 20.5597 14.3854C20.7696 14.5404 20.9654 14.7147 21.1447 14.9062C21.4574 15.2344 21.6087 15.5 21.5734 15.5312C21.5381 15.5625 21.3414 15.3229 21.0086 15.0469L20.9985 15.0521ZM21.2809 11.9583C20.831 11.8628 20.3735 11.8104 19.9143 11.8021C19.4546 11.796 18.9954 11.8343 18.5426 11.9167C18.1745 11.9792 17.9223 12.0417 17.9072 11.9948C17.8921 11.9479 18.119 11.8229 18.4972 11.7031C18.9593 11.5655 19.4384 11.4988 19.9193 11.5052C20.4004 11.5094 20.8781 11.5884 21.3363 11.7396C21.7095 11.8698 21.9365 12.0104 21.9163 12.0521C21.8961 12.0938 21.6591 12.026 21.291 11.9531L21.2809 11.9583Z" fill="#F2994A"/>
</svg>
